<svg width="22" height="22" viewBox="0 0 22 22" fill="none" xmlns="http://www.w3.org/2000/svg">
<path id="search" d="M20.9327 21.533L12.5994 13.1997C11.9327 13.7775 11.1661 14.2219 10.2994 14.533C9.43275 14.8441 8.57719 14.9997 7.73275 14.9997C5.68317 14.9997 3.94856 14.2904 2.52891 12.8718C1.10925 11.4532 0.399414 9.71982 0.399414 7.67178C0.399414 5.62371 1.10871 3.88856 2.52731 2.46634C3.94594 1.04412 5.67927 0.333008 7.72731 0.333008C9.77538 0.333008 11.5105 1.04284 12.9327 2.46251C14.355 3.88215 15.0661 5.61676 15.0661 7.66634C15.0661 8.57745 14.8994 9.46634 14.5661 10.333C14.2327 11.1997 13.7994 11.933 13.2661 12.533L21.5994 20.8663L20.9327 21.533ZM7.73275 14.0663C9.53275 14.0663 11.0494 13.4497 12.2827 12.2163C13.5161 10.983 14.1327 9.46634 14.1327 7.66634C14.1327 5.86634 13.5161 4.34967 12.2827 3.11634C11.0494 1.88301 9.53275 1.26634 7.73275 1.26634C5.93275 1.26634 4.41608 1.88301 3.18275 3.11634C1.94941 4.34967 1.33275 5.86634 1.33275 7.66634C1.33275 9.46634 1.94941 10.983 3.18275 12.2163C4.41608 13.4497 5.93275 14.0663 7.73275 14.0663Z" fill="#1C1B1F"/>
</svg>
