<svg width="25" height="24" viewBox="0 0 25 24" fill="none" xmlns="http://www.w3.org/2000/svg">
<mask id="mask0_276_2345" style="mask-type:alpha" maskUnits="userSpaceOnUse" x="0" y="0" width="25" height="24">
<rect x="0.5" width="24" height="24" fill="#D9D9D9"/>
</mask>
<g mask="url(#mask0_276_2345)">
<path d="M6.54427 20.0002C6.18402 20.0002 5.85774 19.8948 5.56542 19.6839C5.27312 19.473 5.07953 19.1893 4.98465 18.8329L2.78082 11.0252C2.71031 10.7726 2.75486 10.5387 2.91447 10.3233C3.07409 10.1079 3.28851 10.0002 3.55772 10.0002H8.25005L11.8423 4.58481C11.9257 4.46429 12.0231 4.37519 12.1347 4.31751C12.2462 4.25981 12.3725 4.23096 12.5135 4.23096C12.6545 4.23096 12.7808 4.26301 12.8923 4.32711C13.0039 4.39122 13.1013 4.48353 13.1847 4.60403L16.7385 10.0002H21.4424C21.7116 10.0002 21.9292 10.1079 22.0952 10.3233C22.2613 10.5387 22.3026 10.7726 22.2193 11.0252L19.977 18.8329C19.8821 19.1893 19.6885 19.473 19.3962 19.6839C19.1039 19.8948 18.7776 20.0002 18.4173 20.0002H6.54427ZM6.46157 19.0002H18.5385C18.6795 19.0002 18.8013 18.9585 18.9039 18.8752C19.0065 18.7919 19.077 18.6797 19.1154 18.5387L21.2 11.0002H3.80005L5.88467 18.5387C5.92312 18.6797 5.99363 18.7919 6.0962 18.8752C6.19877 18.9585 6.32056 19.0002 6.46157 19.0002ZM12.5 16.0002C12.768 16.0002 13.0017 15.9005 13.201 15.7012C13.4004 15.5018 13.5 15.2682 13.5 15.0002C13.5 14.7323 13.4004 14.4986 13.201 14.2992C13.0017 14.0999 12.768 14.0002 12.5 14.0002C12.2321 14.0002 11.9984 14.0999 11.7991 14.2992C11.5997 14.4986 11.5 14.7323 11.5 15.0002C11.5 15.2682 11.5997 15.5018 11.7991 15.7012C11.9984 15.9005 12.2321 16.0002 12.5 16.0002ZM9.46352 10.0002H15.5308L12.4943 5.37713L9.46352 10.0002Z" fill="#14130D"/>
</g>
</svg>
