<svg width="158" height="36" viewBox="0 0 158 36" fill="none" xmlns="http://www.w3.org/2000/svg">
<path id="Union" fill-rule="evenodd" clip-rule="evenodd" d="M34.2183 0.508789C38.2669 0.508789 42.1051 3.00041 42.1051 7.1365C42.1051 11.2726 38.2669 13.7642 34.2183 13.7144H33.9028C29.7491 13.7144 25.9634 11.2726 25.9634 7.1365C25.9634 3.00041 29.8017 0.508789 33.9028 0.508789H34.2183ZM28.8027 7.1365C28.8027 10.2261 30.7481 12.6679 34.008 12.7676C37.4256 12.7177 39.2133 9.92712 39.2133 7.1365C39.2133 4.04689 37.2679 1.55527 34.008 1.50544C30.7481 1.55527 28.8027 4.04689 28.8027 7.1365ZM43.3144 34.0959C45.6805 33.9962 47.5207 32.9996 49.1507 31.2056L49.5187 31.4548C48.6774 33.0494 46.4166 35.4912 42.6835 35.4912C39.003 35.4912 35.375 32.7504 35.375 28.8635C35.375 24.9765 38.8978 22.2357 42.4732 22.2357C44.5264 22.2357 45.6307 22.4325 46.6547 22.6149C46.9942 22.6754 47.3249 22.7343 47.6784 22.7839C47.6784 23.8304 47.8888 25.7739 48.0465 26.8702H47.6784C46.9949 24.6277 45.6805 23.1826 43.0515 23.1826C39.9494 23.2822 38.2669 26.2223 38.3194 28.6143C38.4246 31.6541 40.0545 34.046 43.3144 34.0959ZM46.9423 13.3656L44.9444 13.4652H44.9443C44.8392 13.4652 44.734 13.4652 44.5763 13.5151V13.2659C46.364 13.1164 46.6269 12.5682 46.6269 11.5716V3.99706C46.6269 1.85427 46.5217 1.25627 44.5763 1.10678V0.857615H44.8918C45.4176 0.857615 45.9565 0.870072 46.4954 0.882529C47.0344 0.894986 47.5733 0.907443 48.0991 0.907443H48.0994C49.2035 0.907443 50.5704 0.907443 51.6218 0.857615H51.8847V1.10678C49.3084 1.4556 49.2032 1.9041 49.2032 3.4489V12.2194C49.8868 12.3689 50.5177 12.4686 51.2012 12.4686C54.2508 12.4188 55.9333 11.6214 57.5107 9.17964H57.7736C56.8797 12.9669 54.8817 13.3656 53.3044 13.3656H46.9423ZM22.8087 13.4652L19.8117 13.3656L16.7096 13.4652H16.3941V13.2161C18.287 13.0666 18.4447 12.4686 18.4447 10.3258V3.94723C18.4447 1.80443 18.287 1.20644 16.3415 1.05694V0.807779H16.657C17.1501 0.807779 17.7457 0.819921 18.3489 0.832218C18.9678 0.844834 19.5947 0.857615 20.1272 0.857615L22.7036 0.807779H23.019V1.05694C21.1788 1.20644 21.021 1.80443 21.021 3.94723V10.3258C21.021 12.4686 21.1262 13.0666 23.1242 13.2161V13.4652H22.8087ZM67.5006 0.508789C71.6018 0.508789 75.3874 3.00041 75.3874 7.1365C75.3874 11.2726 71.5492 13.7642 67.5006 13.7144H67.1851C63.0314 13.7144 59.2458 11.2726 59.2458 7.1365C59.2458 3.00041 63.084 0.508789 67.1851 0.508789H67.5006ZM62.085 7.1365C62.085 10.2261 64.0304 12.6679 67.2903 12.7676C70.7079 12.7177 72.4956 9.92712 72.4956 7.1365C72.4956 4.04689 70.5502 1.55527 67.2903 1.50544C64.0304 1.55527 62.085 4.04689 62.085 7.1365ZM94.4209 8.33249C93.3168 8.38232 92.4755 8.63148 92.4755 9.87729H92.5281V12.1696C91.2662 12.9669 89.3734 13.7642 86.8496 13.7642H86.5341C82.8536 13.7642 78.8576 11.4719 78.8576 7.18634C78.8576 3.24957 82.8536 0.558617 86.5341 0.558617C89.0285 0.558617 90.0848 0.850688 91.3273 1.19427L91.3713 1.20644C91.3713 2.05359 91.6868 4.09672 91.8446 4.94388H91.3188C90.3198 3.05024 89.163 1.6051 86.6393 1.55527C83.6423 1.6051 81.8546 4.34588 81.8546 7.1365C81.8546 10.3258 83.6423 12.6181 86.6393 12.6679C87.796 12.6181 88.9001 12.4188 89.8991 11.7211V9.67796C89.8991 8.78098 89.163 8.38232 87.796 8.33249V8.08332H88.1115C88.611 8.08332 89.0447 8.09578 89.4785 8.10824C89.9123 8.1207 90.3461 8.13315 90.8456 8.13315L94.1054 8.08332H94.4209V8.33249ZM101.414 25.9732C101.414 27.7672 99.2582 29.0628 97.9963 29.2123C99.1004 31.0561 101.414 34.5444 104.043 34.7935V35.0427H103.727C103.488 35.0354 103.261 35.0294 103.045 35.0237C100.324 34.9521 99.3974 34.9277 97.8385 32.8501C96.9973 31.7538 96.2612 30.7571 95.4725 29.5611C95.3016 29.5341 95.1345 29.5108 94.9723 29.4881C94.5359 29.4271 94.135 29.3711 93.79 29.2621V32.0029C93.79 34.1457 93.8951 34.7437 95.8931 34.8932V35.1424H95.5776C95.0781 35.1424 94.5524 35.1299 94.0266 35.1174C93.5008 35.105 92.975 35.0925 92.4755 35.0925C91.4765 35.0925 90.3198 35.0925 89.4259 35.1424H89.1105V34.8932C91.0033 34.7437 91.161 34.1457 91.161 32.0029V25.6244C91.161 23.4816 91.0033 22.8836 89.1105 22.7341V22.4849H89.4259C90.2672 22.5347 91.2662 22.5846 92.1074 22.5846C92.4785 22.5846 93.0591 22.5405 93.6739 22.4937C94.3659 22.4411 95.1012 22.3852 95.6302 22.3852H95.8931C98.2592 22.3852 101.414 23.0829 101.414 25.9732ZM93.79 28.116C94.3158 28.3153 94.9467 28.4648 95.5251 28.4648C97.2602 28.3651 98.6272 27.6177 98.6272 25.8237C98.6272 24.1792 97.2076 23.4317 95.5776 23.4317C94.9993 23.4317 94.3158 23.4816 93.79 23.6311C93.7568 24.4167 93.7655 24.905 93.7764 25.521C93.7828 25.8818 93.79 26.2865 93.79 26.8203V28.116ZM101.414 3.99706V10.3756C101.414 12.5184 101.572 13.0666 103.57 13.2659V13.5151H103.254L100.257 13.4154L97.1024 13.5151H96.787V13.2659C98.6798 13.1164 98.8375 12.5184 98.8375 10.3756V3.99706C98.8375 1.85427 98.6798 1.25627 96.7344 1.10678V0.857615H97.0499C97.5429 0.857615 98.1385 0.869754 98.7417 0.88205C99.3606 0.894664 99.9875 0.907443 100.52 0.907443L103.096 0.857615H103.412V1.10678C101.572 1.25627 101.414 1.85427 101.414 3.99706ZM66.2913 25.6244V32.0527C66.2913 34.1955 66.3965 34.7437 68.3945 34.8932V35.1424H68.1316L64.8717 35.0925L61.9799 35.1424H61.6644V34.8932C63.5572 34.7437 63.7149 34.1457 63.7149 32.0029V28.8136H56.5117V32.0029C56.5117 34.1457 56.6168 34.7437 58.6148 34.8932V35.1424H58.2993L55.1972 35.0925L52.1476 35.1424H51.8847V34.8932C53.7776 34.7437 53.9353 34.1457 53.9353 32.0029V25.6244C53.9353 23.4816 53.7776 22.8836 51.8322 22.7341V22.4849H52.1476C53.1992 22.5347 54.4085 22.5846 55.4601 22.5846L58.2468 22.4849H58.5097V22.7341C56.6694 22.8836 56.5117 23.4816 56.5117 25.6244V27.817H63.7149V25.6244C63.7149 23.4816 63.5572 22.8836 61.6118 22.7341V22.4849H61.8747C62.9263 22.5347 64.0304 22.5846 65.082 22.5846L67.9738 22.4849H68.2893V22.7341C66.449 22.8836 66.2913 23.4816 66.2913 25.6244ZM145.265 10.3258V3.94723C145.265 1.80443 145.159 1.25627 143.214 1.05694V0.807779H143.477C144.282 0.807779 145.099 0.818513 145.974 0.830018C146.985 0.843303 148.073 0.857615 149.313 0.857615C151.153 0.857615 153.046 0.857612 154.939 0.807779H155.202C155.202 1.40577 155.254 3.49874 155.307 4.19639L154.939 4.29605C154.308 1.95393 152.52 1.7546 150.575 1.7546C149.629 1.7546 148.735 1.7546 147.788 1.85426V6.09003C148.209 6.04019 148.63 6.04019 149.05 6.04019C150.89 6.04019 152.205 5.5917 152.468 3.7479H152.783C152.783 4.19639 152.77 4.65734 152.757 5.11829C152.744 5.57924 152.731 6.04019 152.731 6.48869C152.731 6.93718 152.744 7.39813 152.757 7.85908C152.77 8.32003 152.783 8.78098 152.783 9.22947H152.468C151.995 7.08668 150.943 6.98701 148.787 6.98701H147.788V12.2194C148.496 12.3701 149.218 12.4535 149.944 12.4686C153.046 12.4188 154.992 11.9204 156.884 9.52846L157.147 9.5783C157.147 9.5783 156.306 13.3656 152.731 13.3656H145.843L143.477 13.4652H143.214V13.2161C145.159 13.0666 145.265 12.4686 145.265 10.3258ZM130.017 15.608L130.122 15.907C128.755 17.3522 126.494 18.7973 122.761 18.7475C120.526 18.7475 118.699 17.8007 116.872 16.8538C115.045 15.907 113.218 14.9602 110.983 14.9602C108.933 14.9602 108.197 15.309 108.197 15.309L108.091 15.0599C109.248 14.5117 110.352 14.1629 112.35 14.1629C114.7 14.1629 117.035 14.995 119.22 15.7739C121.142 16.4591 122.949 17.103 124.549 17.103C127.756 17.103 130.017 15.608 130.017 15.608ZM114.453 13.7642H114.138C110.089 13.7642 106.251 11.2726 106.199 7.18634C106.199 3.05024 110.037 0.558617 114.138 0.558617H114.453C118.555 0.558617 122.34 3.05024 122.34 7.18634C122.34 11.2726 118.555 13.7642 114.453 13.7642ZM119.501 7.1365C119.501 4.04689 117.556 1.55527 114.296 1.50544C111.036 1.6051 109.143 4.09672 109.09 7.1365C109.09 10.2261 111.036 12.6679 114.296 12.7676C117.713 12.6679 119.501 9.87729 119.501 7.1365ZM2.09271 9.92713V3.94723C2.09271 1.80443 2.09271 1.25627 0.252458 1.10678V0.857615H0.56793C0.96227 0.857615 1.34347 0.870072 1.72466 0.882529C2.10586 0.894986 2.48705 0.907443 2.88139 0.907443C3.39465 0.907443 3.95802 0.871829 4.5348 0.835368C5.13974 0.797126 5.75944 0.757951 6.35159 0.757951H6.61448C8.87536 0.757951 12.3981 1.55527 12.3981 4.34589C12.3981 5.49204 11.2414 6.53851 10.0847 6.88734V6.93718C12.1878 7.585 13.3446 8.28265 13.3446 10.276C13.3446 12.4686 10.2424 13.5649 7.77121 13.5649H7.45574C6.90608 13.5649 6.40201 13.5357 5.94203 13.4787L5.98361 13.5149C5.63308 13.4983 5.27086 13.4761 4.90865 13.454C4.18424 13.4097 3.45982 13.3654 2.82889 13.3654L0.515424 13.4152H0.199951V13.166C2.09278 12.9667 2.09278 12.4186 2.09278 10.2758V10.1263L2.09709 10.13C2.09417 10.0632 2.09271 9.9956 2.09271 9.92713ZM6.29901 1.65493C5.72064 1.65493 5.19486 1.70477 4.61649 1.85426V6.09003C5.30001 6.43885 5.98354 6.53852 6.71964 6.53852C8.19184 6.53852 9.61147 5.84086 9.61147 4.19639C9.61147 2.70142 8.03411 1.70476 6.29901 1.65493ZM6.77222 7.4355C6.08869 7.4355 5.30001 7.38567 4.61649 7.18634V9.82746C4.61649 11.8208 5.0897 12.6181 7.19285 12.6679C9.40115 12.6181 10.7156 11.5716 10.7156 10.1265C10.7156 8.53181 9.87436 7.78433 8.82279 7.23617C8.25239 7.35456 7.67141 7.4213 7.08769 7.4355H6.77222ZM138.167 0.90725C138.85 0.90725 139.954 0.90725 140.585 0.857422H140.901V1.10658C139.744 1.25608 139.008 1.45541 139.008 3.59821V9.17945C139.008 11.8704 136.431 13.764 132.909 13.764H132.593C129.438 13.764 126.704 12.0697 126.704 9.02995V2.80089C126.704 1.40558 126.126 1.30591 124.969 1.10658V0.857422H125.285C125.837 0.857422 126.376 0.869879 126.915 0.882336C127.454 0.894793 127.992 0.90725 128.545 0.90725H128.545C129.386 0.90725 130.595 0.90725 131.331 0.857422H131.647V1.10658C129.912 1.25608 129.491 1.7544 129.491 3.29921V8.98012C129.491 11.2724 131.173 12.4684 133.277 12.5182C135.958 12.4684 137.43 10.8738 137.43 9.07978V3.99687C137.43 1.95374 137.115 1.30591 135.485 1.10658V0.857422H135.748C136.142 0.857422 136.55 0.869879 136.957 0.882336C137.365 0.894793 137.772 0.90725 138.166 0.90725H138.167ZM74.1782 32.1024V25.7238C74.1782 23.581 74.073 22.983 72.1276 22.8834V22.6342H72.4431C73.2435 22.6342 74.0439 22.6448 74.9063 22.6562C75.9133 22.6696 77.0048 22.6841 78.2793 22.6841C80.1196 22.6841 82.0124 22.684 83.9052 22.6342H84.2207C84.1681 23.2322 84.2207 25.3252 84.2733 26.0228L83.9052 26.0727C83.2743 23.7305 81.4866 23.5312 79.5412 23.5312C78.5948 23.5312 77.701 23.5312 76.7545 23.6309V27.8666C77.1752 27.8168 77.5958 27.8168 78.0164 27.8168C79.8567 27.8168 81.1712 27.3683 81.434 25.5245H81.7495C81.7495 25.973 81.7364 26.4339 81.7232 26.8949C81.7101 27.3558 81.6969 27.8168 81.6969 28.2653C81.6969 28.7138 81.7101 29.1747 81.7232 29.6357C81.7364 30.0966 81.7495 30.5576 81.7495 31.0061H81.434C80.9608 28.8633 79.9093 28.7636 77.7535 28.7636H76.7545V33.996C77.4626 34.1467 78.1847 34.2301 78.9103 34.2452C82.0124 34.1954 83.9578 33.697 85.8506 31.3051L86.1135 31.4047C86.1135 31.4047 85.2723 35.192 81.6969 35.192H74.8091L72.4431 35.2418H72.1276V34.9927C74.073 34.8432 74.1782 34.2452 74.1782 32.1024ZM19.9695 32.1024V25.7238C19.9695 23.581 19.8644 22.983 17.919 22.8834V22.6342H18.2344C19.0397 22.6342 19.8563 22.645 20.7315 22.6565C21.7421 22.6697 22.8309 22.6841 24.0707 22.6841C25.9109 22.6841 27.8038 22.684 29.6966 22.6342H30.0121C30.0121 23.2322 30.0647 25.3252 30.1172 26.0228L29.7492 26.0727C29.0657 23.7305 27.278 23.5312 25.3326 23.5312H25.3325C24.3861 23.5312 23.4923 23.5312 22.5459 23.6309V27.8666C22.9665 27.8168 23.3872 27.8168 23.8078 27.8168C25.648 27.8168 26.9625 27.3683 27.2254 25.5245H27.5409C27.5409 25.973 27.5277 26.4339 27.5146 26.8949C27.5014 27.3558 27.4883 27.8168 27.4883 28.2653C27.4883 28.7138 27.5014 29.1747 27.5146 29.6357C27.5277 30.0966 27.5409 30.5576 27.5409 31.0061H27.2254C26.7522 28.8633 25.7006 28.7636 23.5449 28.7636H22.4933V33.996C23.2014 34.1467 23.9235 34.2301 24.649 34.2452C27.7512 34.1954 29.6966 33.697 31.5894 31.3051L31.8523 31.4047C31.8523 31.4047 31.0111 35.192 27.4357 35.192H20.5479L18.1819 35.2418H17.919V34.9927C19.8644 34.8432 19.9695 34.2452 19.9695 32.1024ZM12.6611 25.973C12.6611 27.767 10.5054 29.0626 9.24349 29.2121C10.4002 31.0559 12.7137 34.5442 15.2375 34.7933V35.0425H14.922C14.6823 35.0352 14.4552 35.0292 14.2393 35.0235C11.519 34.9519 10.592 34.9275 9.03317 32.8499C8.19191 31.7536 7.45581 30.7569 6.66713 29.5609C6.49621 29.5339 6.32915 29.5106 6.167 29.4879C5.73055 29.427 5.32963 29.3709 4.98461 29.2619V32.0027C4.98461 34.1455 5.08977 34.7435 7.08776 34.893V35.1422H6.77229C6.27279 35.1422 5.747 35.1297 5.22122 35.1173C4.69543 35.1048 4.16964 35.0923 3.67015 35.0923C2.72373 35.0923 1.51442 35.0923 0.62058 35.1422H0.305108V34.893C2.19794 34.7435 2.35568 34.1455 2.35568 32.0027V25.6242C2.35568 23.4814 2.19794 22.8834 0.305108 22.7339V22.4847H0.62058C1.46184 22.5346 2.46083 22.5844 3.30209 22.5844C3.67316 22.5844 4.25372 22.5403 4.86854 22.4935C5.56051 22.4409 6.29589 22.3851 6.82487 22.3851H7.14034C9.50638 22.3851 12.6611 23.0827 12.6611 25.973ZM5.08977 28.1158C5.61556 28.3151 6.2465 28.4646 6.82487 28.4646C8.55996 28.365 9.92701 27.6175 9.97959 25.8235C9.97959 24.179 8.55997 23.4315 6.93003 23.4315C6.29908 23.4315 5.66814 23.4814 5.08977 23.6309C5.05662 24.4165 5.06527 24.9048 5.0762 25.5208C5.0826 25.8816 5.08977 26.2863 5.08977 26.8201V28.1158ZM114.033 34.0957C116.399 33.996 118.239 32.9994 119.869 31.2054L120.29 31.4546C119.448 33.0492 117.188 35.491 113.454 35.491C109.774 35.491 106.146 32.7502 106.146 28.8633C106.146 24.9763 109.669 22.2356 113.244 22.2356C115.297 22.2356 116.402 22.4323 117.426 22.6147C117.765 22.6752 118.096 22.7341 118.449 22.7837C118.449 23.8302 118.66 25.7737 118.817 26.87H118.449C117.766 24.6275 116.451 23.1824 113.823 23.1824C110.72 23.282 109.038 26.2222 109.09 28.6141C109.143 31.6539 110.773 34.0459 114.033 34.0957ZM137.536 25.6242V32.0526C137.536 34.1954 137.693 34.7435 139.744 34.893V35.1422H139.428L136.168 35.0923L133.277 35.1422H132.961V34.893C134.854 34.7435 135.012 34.1455 135.012 32.0027V28.8134H127.861V32.0027C127.861 34.1455 127.966 34.7435 129.964 34.893V35.1422H129.701L126.599 35.0923L123.55 35.1422H123.234V34.893C125.127 34.7435 125.285 34.1455 125.285 32.0027V25.6242C125.285 23.4814 125.127 22.8834 123.182 22.7339V22.4847H123.444C124.496 22.5346 125.705 22.5844 126.757 22.5844L129.544 22.4847H129.806V22.7339C127.966 22.8834 127.808 23.4814 127.808 25.6242V27.8168H135.012V25.6242C135.012 23.4814 134.854 22.8834 132.909 22.7339V22.4847H133.171C134.223 22.5346 135.327 22.5844 136.379 22.5844L139.271 22.4847H139.534V22.7339C137.693 22.8834 137.536 23.4814 137.536 25.6242ZM145.265 32.1024V25.7238C145.265 23.581 145.107 22.983 143.161 22.8834V22.6342H143.477C144.277 22.6342 145.078 22.6448 145.94 22.6562C146.947 22.6696 148.039 22.6841 149.313 22.6841C151.153 22.6841 153.046 22.684 154.939 22.6342H155.255C155.255 23.2322 155.307 25.3252 155.36 26.0228L154.992 26.0727C154.361 23.7305 152.573 23.5312 150.628 23.5312C149.681 23.5312 148.787 23.5312 147.841 23.6309V27.8666C148.262 27.8168 148.682 27.8168 149.103 27.8168C150.943 27.8168 152.258 27.3683 152.52 25.5245H152.836C152.836 25.973 152.823 26.4339 152.81 26.8949C152.796 27.3558 152.783 27.8168 152.783 28.2653C152.783 28.7138 152.796 29.1747 152.81 29.6357C152.823 30.0966 152.836 30.5576 152.836 31.0061H152.52C152.047 28.8633 150.996 28.7636 148.84 28.7636H147.841V33.996C148.549 34.1467 149.271 34.2301 149.997 34.2452C153.099 34.1954 155.044 33.697 156.937 31.3051L157.2 31.4047C157.2 31.4047 156.359 35.192 152.783 35.192H145.896L143.529 35.2418H143.214V34.9927C145.159 34.8432 145.265 34.2452 145.265 32.1024Z" fill="#8A8A8A"/>
</svg>
