<svg width="151" height="32" viewBox="0 0 151 32" fill="none" xmlns="http://www.w3.org/2000/svg">
<g id="logo-clean (1) 1" clip-path="url(#clip0_292_519)">
<path id="Vector" d="M2.45863 24.3653V27.1363H3.87879C4.39836 27.1363 4.7967 27.0151 5.05649 26.7726C5.31627 26.5302 5.4375 26.1838 5.4375 25.7508C5.4375 24.8156 4.91793 24.3653 3.87879 24.3653H2.45863ZM2.45863 27.8984V30.9292H1.48877V23.5859H3.87879C4.7101 23.5859 5.33359 23.7938 5.76657 24.1921C6.19954 24.5904 6.42469 25.0927 6.42469 25.6642C6.42469 26.2531 6.26882 26.738 5.93976 27.1363C5.62801 27.5174 5.14308 27.7598 4.5196 27.8637L6.54592 30.9292H5.33359L3.39386 27.8984H2.45863Z" fill="#8A8A8A"/>
<path id="Vector_2" d="M12.8328 23.5859V24.348H9.9059V26.8592H12.5038V27.6039H9.9059V30.1672H12.8328V30.9292H8.93604V23.5859H12.8328Z" fill="#8A8A8A"/>
<path id="Vector_3" d="M15.9848 25.5429C15.9848 25.82 16.054 26.0452 16.2099 26.2184C16.3485 26.3916 16.539 26.5301 16.7814 26.6167C17.0066 26.686 17.2664 26.7726 17.5608 26.8245C17.8379 26.8938 18.1323 26.9631 18.4094 27.0497C18.7039 27.1363 18.9636 27.2402 19.1888 27.3614C19.4313 27.4827 19.6218 27.6732 19.7776 27.933C19.9162 28.1927 19.9855 28.5045 19.9855 28.8855C19.9855 29.457 19.7776 29.9593 19.3273 30.3749C18.8944 30.8079 18.3055 31.0157 17.5608 31.0157C16.8161 31.0157 16.2099 30.8425 15.7423 30.4962C15.2747 30.1498 15.0322 29.6822 15.0322 29.0933H16.0714C16.0887 29.4397 16.2272 29.6995 16.4697 29.9073C16.6949 30.1152 17.0586 30.2191 17.5262 30.2191C17.9938 30.2191 18.3575 30.0978 18.6346 29.8554C18.9117 29.6129 19.0502 29.3358 19.0502 29.0067C19.0502 28.695 18.981 28.4352 18.8251 28.262C18.6692 28.0888 18.4787 27.9676 18.2536 27.881C18.0111 27.7944 17.7513 27.7251 17.4742 27.6559C17.1798 27.6039 16.9027 27.5346 16.6083 27.448C16.3312 27.3614 16.0714 27.2575 15.8289 27.119C15.6038 26.9977 15.4132 26.7899 15.2574 26.5474C15.1188 26.2876 15.0322 25.9586 15.0322 25.5776C15.0322 24.9541 15.2574 24.4518 15.7077 24.0708C16.1406 23.7071 16.7122 23.5166 17.4223 23.5166C18.1323 23.5166 18.7039 23.6725 19.1195 24.0015C19.5525 24.3306 19.795 24.7809 19.8469 25.3697H18.7905C18.7558 25.0753 18.6173 24.8329 18.3748 24.625C18.1323 24.4172 17.8033 24.3133 17.3876 24.3133C16.972 24.3133 16.6429 24.4172 16.3658 24.625C16.106 24.8329 15.9848 25.1446 15.9848 25.5429Z" fill="#8A8A8A"/>
<path id="Vector_4" d="M22.3235 28.366V23.5859H23.2934V28.366C23.2934 28.9721 23.4492 29.4224 23.7783 29.7169C24.09 30.0286 24.5403 30.1672 25.1118 30.1672C25.6661 30.1672 26.1164 30.0286 26.4454 29.7169C26.7745 29.4224 26.9303 28.9721 26.9303 28.366V23.5859H27.9002V28.366C27.9002 29.2146 27.6404 29.8727 27.1035 30.3404C26.584 30.7906 25.9085 31.0158 25.0945 31.0158C24.2979 31.0158 23.6224 30.7906 23.1028 30.3404C22.5833 29.8727 22.3235 29.2146 22.3235 28.366Z" fill="#8A8A8A"/>
<path id="Vector_5" d="M30.377 23.5859H31.3295V30.2018H33.91V30.9292H30.377V23.5859Z" fill="#8A8A8A"/>
<path id="Vector_6" d="M35.4861 24.3653V23.5859H40.3354V24.3653H38.3957V30.9292H37.4431V24.3653H35.4861Z" fill="#8A8A8A"/>
<path id="Vector_7" d="M42.7253 26.6338H46.9512V27.4651H42.7253V26.6338Z" fill="#8A8A8A"/>
<path id="Vector_8" d="M50.6227 30.2018H51.9736C52.8915 30.2018 53.6016 29.942 54.0865 29.4224C54.5887 28.9202 54.8312 28.2101 54.8312 27.2922C54.8312 26.3916 54.5887 25.6815 54.0865 25.162C53.6016 24.6597 52.8915 24.3999 51.9736 24.3999H50.6227V30.2018ZM51.9736 23.5859C53.1686 23.5859 54.1038 23.915 54.7793 24.5904C55.472 25.2486 55.8184 26.1491 55.8184 27.2922C55.8184 28.4526 55.472 29.3358 54.7793 29.9766C54.1038 30.6175 53.1686 30.9465 51.9736 30.9465H49.6528V23.5859H51.9736Z" fill="#8A8A8A"/>
<path id="Vector_9" d="M58.9013 24.3653V27.1363H60.3214C60.8583 27.1363 61.2566 27.0151 61.4991 26.7726C61.7589 26.5302 61.8975 26.1838 61.8975 25.7508C61.8975 24.8156 61.3779 24.3653 60.3214 24.3653H58.9013ZM58.9013 27.8984V30.9292H57.9314V23.5859H60.3214C61.1527 23.5859 61.7762 23.7938 62.2092 24.1921C62.6595 24.5904 62.8673 25.0927 62.8673 25.6642C62.8673 26.2531 62.7114 26.738 62.3997 27.1363C62.0706 27.5174 61.603 27.7598 60.9622 27.8637L62.9886 30.9292H61.7762L59.8538 27.8984H58.9013Z" fill="#8A8A8A"/>
<path id="Vector_10" d="M65.3787 23.5859H66.3485V30.9292H65.3787V23.5859Z" fill="#8A8A8A"/>
<path id="Vector_11" d="M71.1284 30.9292L68.3054 23.5859H69.3272L71.648 29.9074L73.9861 23.5859H75.0079L72.1676 30.9292H71.1284Z" fill="#8A8A8A"/>
<path id="Vector_12" d="M80.8619 23.5859V24.348H77.9176V26.8592H80.5328V27.6039H77.9176V30.1672H80.8619V30.9292H76.9651V23.5859H80.8619Z" fill="#8A8A8A"/>
<path id="Vector_13" d="M88.0666 23.5859H89.0365V30.9292H88.0666L84.1871 25.11V30.9292H83.2173V23.5859H84.1871L88.0666 29.4224V23.5859Z" fill="#8A8A8A"/>
<path id="Vector_14" d="M96.3969 25.5429C96.3969 25.82 96.4662 26.0452 96.622 26.2184C96.7779 26.3916 96.9684 26.5301 97.1936 26.6167C97.436 26.686 97.6958 26.7726 97.9729 26.8245C98.2674 26.8938 98.5445 26.9631 98.8389 27.0497C99.116 27.1363 99.3758 27.2402 99.6182 27.3614C99.8434 27.4827 100.034 27.6732 100.19 27.933C100.328 28.1927 100.415 28.5045 100.415 28.8855C100.415 29.457 100.19 29.9593 99.7568 30.3749C99.3065 30.8079 98.7176 31.0157 97.9729 31.0157C97.2282 31.0157 96.622 30.8425 96.1544 30.4962C95.6868 30.1498 95.4617 29.6822 95.4617 29.0933H96.4835C96.5181 29.4397 96.6394 29.6995 96.8818 29.9073C97.1243 30.1152 97.4707 30.2191 97.9383 30.2191C98.4059 30.2191 98.7696 30.0978 99.0467 29.8554C99.3238 29.6129 99.4624 29.3358 99.4624 29.0067C99.4624 28.695 99.3931 28.4352 99.2372 28.262C99.0987 28.0888 98.9082 27.9676 98.6657 27.881C98.4405 27.7944 98.1808 27.7251 97.8863 27.6559C97.6092 27.6039 97.3148 27.5346 97.0377 27.448C96.7433 27.3614 96.4835 27.2575 96.2583 27.119C96.0159 26.9977 95.8254 26.7899 95.6868 26.5474C95.5309 26.2876 95.4617 25.9586 95.4617 25.5776C95.4617 24.9541 95.6695 24.4518 96.1198 24.0708C96.5528 23.7071 97.1416 23.5166 97.8517 23.5166C98.5618 23.5166 99.1333 23.6725 99.549 24.0015C99.9646 24.3306 100.207 24.7809 100.276 25.3697H99.2026C99.1679 25.0753 99.0294 24.8329 98.7869 24.625C98.5445 24.4172 98.2154 24.3133 97.7997 24.3133C97.3841 24.3133 97.055 24.4172 96.7952 24.625C96.5355 24.8329 96.3969 25.1446 96.3969 25.5429Z" fill="#8A8A8A"/>
<path id="Vector_15" d="M103.705 30.9292H102.753V23.5859H103.705V26.9978L106.736 23.5859H108.001L104.554 27.3095L108.001 30.9292H106.719L103.705 27.6559V30.9292Z" fill="#8A8A8A"/>
<path id="Vector_16" d="M109.992 23.5859H110.962V30.9292H109.992V23.5859Z" fill="#8A8A8A"/>
<path id="Vector_17" d="M118.306 23.5859H119.258V30.9292H118.306L114.426 25.11V30.9292H113.456V23.5859H114.426L118.306 29.4224V23.5859Z" fill="#8A8A8A"/>
<path id="Vector_18" d="M122.462 29.942C121.735 29.2319 121.371 28.3313 121.371 27.2575C121.371 26.1664 121.735 25.2658 122.462 24.5731C123.172 23.863 124.073 23.5166 125.129 23.5166C125.891 23.5166 126.567 23.6898 127.173 24.0535C127.762 24.4172 128.212 24.9368 128.489 25.6122H127.311C126.878 24.7809 126.151 24.3652 125.129 24.3652C124.315 24.3652 123.657 24.625 123.138 25.1619C122.618 25.6815 122.358 26.3916 122.358 27.2575C122.358 28.1235 122.618 28.8335 123.138 29.3531C123.657 29.89 124.315 30.1498 125.129 30.1498C125.614 30.1498 126.047 30.0459 126.428 29.8207C126.809 29.6129 127.104 29.3011 127.311 28.9028H128.489C128.212 29.5783 127.762 30.0978 127.173 30.4615C126.567 30.8252 125.891 30.9984 125.129 30.9984C124.073 30.9984 123.172 30.652 122.462 29.942Z" fill="#8A8A8A"/>
<path id="Vector_19" d="M132.421 28.5565H135.122L133.771 24.7636L132.421 28.5565ZM135.971 30.9292L135.399 29.3185H132.143L131.572 30.9292H130.585L133.252 23.5859H134.308L136.975 30.9292H135.971Z" fill="#8A8A8A"/>
<path id="Vector_20" d="M140.11 24.3653V27.1363H141.53C142.05 27.1363 142.448 27.0151 142.708 26.7726C142.968 26.5302 143.089 26.1838 143.089 25.7508C143.089 24.8156 142.569 24.3653 141.53 24.3653H140.11ZM140.11 27.8984V30.9292H139.14V23.5859H141.53C142.362 23.5859 142.985 23.7938 143.418 24.1921C143.851 24.5904 144.076 25.0927 144.076 25.6642C144.076 26.2531 143.92 26.738 143.591 27.1363C143.279 27.5174 142.795 27.7598 142.171 27.8637L144.197 30.9292H142.985L141.045 27.8984H140.11Z" fill="#8A8A8A"/>
<path id="Vector_21" d="M150.484 23.5859V24.348H147.557V26.8592H150.173V27.6039H147.557V30.1672H150.484V30.9292H146.588V23.5859H150.484Z" fill="#8A8A8A"/>
<path id="Vector_22" d="M4.84864 16.502C4.79668 16.4674 4.76204 16.45 4.71009 16.4154C4.51958 16.2768 4.38103 16.1037 4.29443 15.8958C4.20784 15.688 4.15588 15.4282 4.13856 15.1165C4.10392 14.874 4.0866 14.5103 4.0866 14.0254V12.6052V5.4871C4.0866 5.0368 4.10392 4.62115 4.10392 4.27477C4.10392 3.92839 4.12124 3.61665 4.13856 3.37418C4.15588 3.0278 4.20784 2.73338 4.29443 2.50823C4.38103 2.28308 4.51958 2.09257 4.71009 1.9367C4.74472 1.90206 4.79668 1.88474 4.84864 1.8501V1.34785C4.51958 1.36517 4.20783 1.36517 3.87877 1.38249C3.54971 1.38249 3.25529 1.39981 2.96087 1.39981C2.7184 1.39981 2.44129 1.38249 2.11223 1.36517C1.78317 1.34785 1.45411 1.33053 1.10773 1.31321C1.03845 1.31321 0.969178 1.31322 0.899902 1.2959V1.79815C0.969178 1.83279 1.03845 1.86743 1.10773 1.90206C1.31556 2.04062 1.47143 2.23112 1.59266 2.45627C1.7139 2.68142 1.78317 3.01048 1.80049 3.3915C1.81781 3.70324 1.81781 4.04962 1.81781 4.43064V5.60833C1.81781 6.02399 1.81781 6.43965 1.80049 6.83798C1.80049 7.23632 1.80049 7.60002 1.80049 7.96372V9.47047V11.5314V13.5578C1.80049 14.1986 1.78317 14.6662 1.78317 14.9606C1.76585 15.3589 1.69658 15.6707 1.59266 15.9131C1.47143 16.1383 1.31556 16.3288 1.12505 16.45C1.05577 16.502 0.986497 16.5366 0.899902 16.5886V17.0562C0.969178 17.0562 1.03845 17.0562 1.10773 17.0389C1.43679 17.0216 1.76585 17.0216 2.09492 17.0042C2.42398 17.0042 2.70108 17.0042 2.96087 17.0042C3.23797 17.0042 3.53239 17.0042 3.87877 17.0042C4.19052 17.0216 4.51958 17.0216 4.84864 17.0216V16.502Z" fill="#8A8A8A"/>
<path id="Vector_23" d="M97.0552 1.36546C96.5876 1.4001 96.1026 1.41742 95.6177 1.41742C95.202 1.41742 94.7517 1.4001 94.2668 1.34814V1.88504C94.2841 1.90235 94.3014 1.91967 94.3188 1.91967C94.5266 2.05822 94.6825 2.24873 94.7864 2.47388C94.9076 2.71635 94.9769 3.02809 94.9942 3.42643C94.9942 3.79013 95.0115 4.24042 95.0115 4.77731C95.0288 5.29688 95.0462 5.81645 95.0462 6.35334L95.0981 10.1982C95.0981 10.7004 95.0635 11.2027 95.0288 11.7049C94.9942 12.2072 94.9076 12.6921 94.8037 13.1424C94.6998 13.61 94.5612 14.0257 94.388 14.424C94.2149 14.805 93.9897 15.1341 93.7472 15.3939C93.3835 15.7922 92.9679 16.0866 92.431 16.3118C91.9114 16.5369 91.3745 16.6582 90.803 16.6582C90.3354 16.6582 89.8851 16.5889 89.4175 16.485C88.9499 16.3811 88.5169 16.1732 88.1012 15.9134C87.7029 15.6537 87.3738 15.3419 87.1141 14.9436C86.837 14.5452 86.6291 14.1123 86.4559 13.6273C86.3001 13.1424 86.1615 12.6055 86.0922 12.034C86.0056 11.4625 85.971 10.8563 85.971 10.2501L85.9364 5.53935C85.9364 5.07174 85.9364 4.6734 85.9537 4.3097C85.9537 3.96332 85.9537 3.66889 85.971 3.42643C85.9883 3.08005 86.0403 2.78562 86.1269 2.54316C86.2135 2.31801 86.3693 2.1275 86.5425 1.98895C86.5945 1.93699 86.6638 1.90235 86.733 1.86772V1.4001H86.6811C86.3693 1.4001 86.0576 1.41742 85.7285 1.41742C85.3995 1.43474 85.0877 1.43474 84.8106 1.43474C84.5682 1.43474 84.2911 1.41742 83.9793 1.41742C83.6503 1.4001 83.3212 1.38278 82.9575 1.36546C82.8536 1.34815 82.7497 1.34814 82.6458 1.34814V1.78112C82.7497 1.83308 82.8536 1.88503 82.9575 1.95431C83.1653 2.09286 83.3212 2.26605 83.4251 2.50852C83.529 2.73367 83.5983 3.04541 83.6156 3.44375C83.6329 3.73817 83.6329 4.08455 83.6329 4.46557V5.64326V6.85559V7.98133V9.00315C83.6329 9.36685 83.6329 9.74787 83.6329 10.1289C83.6503 10.5099 83.6676 10.8909 83.6676 11.2373C83.6849 11.601 83.6849 11.9127 83.7195 12.1899C83.8234 13.8698 84.343 15.1341 85.2956 16C85.6073 16.2771 85.9537 16.5369 86.3174 16.7101C86.7157 16.9179 87.1141 17.0738 87.5124 17.1777C87.928 17.299 88.361 17.3682 88.794 17.4202C89.227 17.4548 89.66 17.4722 90.0929 17.4722C90.8376 17.4722 91.565 17.3856 92.2578 17.2124C92.9332 17.0219 93.5914 16.6755 94.2149 16.1732C94.6305 15.8095 94.9769 15.4285 95.2367 14.9782C95.5138 14.5452 95.7216 14.0603 95.8775 13.5407C96.0333 13.0212 96.1546 12.4843 96.2065 11.9127C96.2585 11.3412 96.2931 10.7697 96.2931 10.1982V9.99033C96.2758 9.92106 96.2758 9.85178 96.2758 9.79982V9.592V9.12438V8.44894C96.2758 8.22379 96.2758 7.96401 96.2931 7.72154V7.08074V5.52203C96.2931 5.05442 96.2931 4.63876 96.2931 4.29238C96.3105 3.946 96.3278 3.65157 96.3451 3.39179C96.3451 3.04541 96.397 2.7683 96.4836 2.52584C96.5876 2.28337 96.7088 2.11018 96.8993 1.95431C96.9513 1.91967 97.0032 1.88503 97.0552 1.86772V1.36546Z" fill="#8A8A8A"/>
<path id="Vector_24" d="M39.2961 1.46924C39.2961 2.12736 39.4001 3.04527 39.3481 3.27042H39.9196C40.0582 3.06259 40.1967 2.87208 40.3526 2.73352C40.5258 2.56033 40.7509 2.4391 41.0107 2.36982C41.2705 2.30055 41.6169 2.26591 42.0326 2.26591L44.4572 2.21395V3.49556C44.4572 3.87658 44.4572 4.27492 44.4572 4.72521C44.4572 5.17551 44.4745 5.6258 44.4745 6.04146V11.6355C44.4745 12.3283 44.4572 12.9864 44.4572 13.6099C44.4572 14.216 44.4572 14.6836 44.4226 14.9608C44.4053 15.3591 44.3533 15.6708 44.2494 15.9133C44.1455 16.1384 43.9896 16.329 43.7818 16.4675C43.6779 16.5368 43.5739 16.5887 43.4354 16.658V17.0564C43.5393 17.0564 43.6432 17.0564 43.7645 17.039C44.0935 17.0217 44.4226 17.0217 44.7516 17.0044C45.0807 17.0044 45.3578 17.0044 45.6003 17.0044C45.8774 17.0044 46.1718 17.0044 46.5182 17.0044C46.8472 17.0217 47.1936 17.0217 47.5573 17.0217H47.6612V16.5887C47.5573 16.5541 47.4361 16.4848 47.3495 16.4155C47.159 16.277 47.0204 16.1038 46.9338 15.896C46.8472 15.6881 46.7953 15.4284 46.778 15.1166C46.7433 14.8742 46.726 14.5105 46.726 14.0255V12.6054V11.6355L46.7433 2.21395L49.1853 2.26591C49.982 2.28323 50.5535 2.4391 50.9172 2.76816C51.0731 2.87208 51.1597 3.06259 51.2289 3.27042H52.1642V1.46924H39.2961Z" fill="#8A8A8A"/>
<path id="Vector_25" d="M68.3575 1.46924C68.3402 2.12736 68.4268 3.04527 68.3922 3.27042H68.9637C69.1023 3.06259 69.2408 2.87208 69.3967 2.73352C69.5699 2.56033 69.795 2.4391 70.0548 2.36982C70.3146 2.30055 70.661 2.26591 71.0766 2.26591L73.5013 2.21395V3.49556V4.72521C73.5013 5.17551 73.5186 5.6258 73.5186 6.04146V11.6355C73.5186 12.3283 73.5013 12.9864 73.5013 13.6099C73.5013 14.216 73.5013 14.6836 73.4667 14.9608C73.4493 15.3591 73.3974 15.6708 73.2935 15.9133C73.1895 16.1384 73.0337 16.329 72.8258 16.4675C72.7219 16.5368 72.618 16.5887 72.4622 16.658V17.0564C72.5834 17.0564 72.7046 17.0564 72.8085 17.039C73.1376 17.0217 73.4666 17.0217 73.7957 17.0044C74.1248 17.0044 74.4019 17.0044 74.6443 17.0044C74.9214 17.0044 75.2159 17.0044 75.5622 17.0044C75.8913 17.0217 76.2377 17.0217 76.6014 17.0217H76.7053V16.5887C76.5841 16.5541 76.4802 16.4848 76.3936 16.4155C76.2031 16.277 76.0645 16.1038 75.9779 15.896C75.8913 15.6881 75.8394 15.4284 75.822 15.1166C75.7701 14.8742 75.7701 14.5105 75.7701 14.0255V12.6054V11.6355L75.7874 2.21395L78.2294 2.26591C79.0261 2.28323 79.5976 2.4391 79.9613 2.76816C80.1172 2.87208 80.2037 3.06259 80.273 3.27042H81.1909V1.46924H68.3575Z" fill="#8A8A8A"/>
<path id="Vector_26" d="M127.19 1.36546C126.723 1.4001 126.255 1.41742 125.77 1.41742C125.354 1.41742 124.904 1.4001 124.402 1.34814V1.88504C124.436 1.90235 124.454 1.91967 124.471 1.91967C124.662 2.05822 124.835 2.24873 124.939 2.47388C125.06 2.71635 125.112 3.02809 125.129 3.42643C125.147 3.79013 125.164 4.24042 125.164 4.77731C125.164 5.29688 125.181 5.81645 125.198 6.35334L125.233 10.1982C125.233 10.7004 125.216 11.2027 125.164 11.7049C125.129 12.2072 125.06 12.6921 124.956 13.1424C124.852 13.61 124.714 14.0257 124.54 14.424C124.35 14.805 124.142 15.1341 123.882 15.3939C123.536 15.7922 123.103 16.0866 122.583 16.3118C122.064 16.5369 121.527 16.6582 120.955 16.6582C120.488 16.6582 120.02 16.5889 119.552 16.485C119.102 16.3811 118.669 16.1732 118.254 15.9134C117.855 15.6537 117.526 15.3419 117.266 14.9436C116.989 14.5452 116.764 14.1123 116.608 13.6273C116.435 13.1424 116.314 12.6055 116.227 12.034C116.158 11.4625 116.123 10.8563 116.123 10.2501L116.071 5.53935C116.071 5.07174 116.071 4.6734 116.089 4.3097C116.089 3.96332 116.106 3.66889 116.123 3.42643C116.123 3.08005 116.175 2.78562 116.279 2.54316C116.366 2.31801 116.504 2.1275 116.695 1.98895C116.747 1.93699 116.799 1.90235 116.868 1.86772V1.4001H116.833C116.504 1.4001 116.193 1.41742 115.864 1.41742C115.552 1.43474 115.24 1.43474 114.946 1.43474C114.72 1.43474 114.443 1.41742 114.114 1.41742C113.803 1.4001 113.456 1.38278 113.11 1.36546C112.989 1.34815 112.902 1.34814 112.781 1.34814V1.78112C112.902 1.83308 113.006 1.88503 113.093 1.95431C113.3 2.09286 113.456 2.26605 113.56 2.50852C113.681 2.73367 113.751 3.04541 113.751 3.44375C113.768 3.73817 113.785 4.08455 113.785 4.46557V5.64326V6.85559V7.98133V9.00315C113.785 9.36685 113.785 9.74787 113.785 10.1289C113.803 10.5099 113.803 10.8909 113.803 11.2373C113.82 11.601 113.837 11.9127 113.855 12.1899C113.958 13.8698 114.478 15.1341 115.448 16C115.76 16.2771 116.089 16.5369 116.487 16.7101C116.851 16.9179 117.249 17.0738 117.665 17.1777C118.08 17.299 118.513 17.3682 118.929 17.4202C119.379 17.4548 119.795 17.4722 120.228 17.4722C120.99 17.4722 121.7 17.3856 122.393 17.2124C123.086 17.0219 123.726 16.6755 124.35 16.1732C124.766 15.8095 125.112 15.4285 125.389 14.9782C125.649 14.5452 125.857 14.0603 126.03 13.5407C126.186 13.0212 126.307 12.4843 126.359 11.9127C126.411 11.3412 126.428 10.7697 126.428 10.1982C126.428 10.1289 126.428 10.0596 126.428 9.99033C126.411 9.92106 126.411 9.85178 126.411 9.79982V9.592V9.12438V8.44894C126.411 8.22379 126.411 7.96401 126.428 7.72154C126.428 7.49639 126.428 7.27125 126.428 7.08074V5.52203C126.428 5.05442 126.445 4.63876 126.445 4.29238C126.463 3.946 126.463 3.65157 126.463 3.39179C126.497 3.04541 126.549 2.7683 126.636 2.52584C126.723 2.28337 126.861 2.11018 127.034 1.95431C127.086 1.91967 127.138 1.88503 127.19 1.86772V1.36546Z" fill="#8A8A8A"/>
<path id="Vector_27" d="M98.4927 1.46924C98.4927 2.12736 98.5966 3.04527 98.5446 3.27042H99.1162C99.2374 3.06259 99.3933 2.87208 99.5491 2.73352C99.7223 2.56033 99.9475 2.4391 100.207 2.36982C100.467 2.30055 100.796 2.26591 101.229 2.26591L103.636 2.21395V3.49556C103.636 3.87658 103.636 4.27492 103.654 4.72521C103.654 5.17551 103.671 5.6258 103.671 6.04146V11.6355C103.671 12.3283 103.654 12.9864 103.654 13.6099C103.636 14.216 103.619 14.6836 103.619 14.9608C103.602 15.3591 103.55 15.6708 103.446 15.9133C103.325 16.1384 103.169 16.329 102.978 16.4675C102.874 16.5368 102.753 16.5887 102.615 16.658V17.0564C102.736 17.0564 102.84 17.0564 102.961 17.039C103.29 17.0217 103.619 17.0217 103.931 17.0044C104.243 17.0044 104.554 17.0044 104.797 17.0044C105.074 17.0044 105.368 17.0044 105.697 17.0044C106.044 17.0217 106.373 17.0217 106.719 17.0217H106.84V16.5887C106.719 16.5541 106.615 16.4848 106.529 16.4155C106.356 16.277 106.2 16.1038 106.113 15.896C106.044 15.6881 105.992 15.4284 105.957 15.1166C105.923 14.8742 105.905 14.5105 105.905 14.0255V12.6054V11.6355L105.94 2.21395L108.382 2.26591C109.161 2.28323 109.75 2.4391 110.114 2.76816C110.252 2.87208 110.339 3.06259 110.425 3.27042H111.343V1.46924H98.4927Z" fill="#8A8A8A"/>
<path id="Vector_28" d="M35.1396 9.52265C34.6893 9.08968 34.2216 8.69134 33.6848 8.32764C33.1652 7.96394 32.6629 7.60024 32.1607 7.21922C31.8143 6.95944 31.4852 6.71697 31.2255 6.49183C30.931 6.24936 30.7059 6.00689 30.4981 5.78174C30.3075 5.53928 30.1517 5.29681 30.0651 5.05434C29.9612 4.81188 29.9265 4.53478 29.9265 4.22303C29.9265 3.87665 29.9785 3.51295 30.117 3.18389C30.2556 2.83751 30.4288 2.56041 30.6712 2.31794C30.8964 2.07548 31.1735 1.88496 31.4852 1.74641C31.8143 1.59054 32.1434 1.52127 32.5244 1.52127C32.8188 1.52127 33.1479 1.57322 33.5116 1.67714C33.8753 1.79837 34.2216 1.98888 34.5334 2.24867C34.8451 2.50845 35.1396 2.85483 35.382 3.30512C35.4167 3.3744 35.4513 3.47831 35.5033 3.56491H36.0055C36.0055 3.49563 35.9882 3.42636 35.9882 3.35708C35.9535 2.83751 35.9535 2.31794 35.9709 1.79837C35.7284 1.65982 35.4686 1.52126 35.1915 1.41735C34.8971 1.31344 34.5853 1.22684 34.2736 1.15757C33.9619 1.08829 33.6501 1.05365 33.3384 1.01902C33.0266 1.0017 32.7322 0.984375 32.4897 0.984375C31.7623 0.984375 31.1215 1.08829 30.55 1.29612C29.9612 1.50395 29.4589 1.78105 29.0433 2.14475C28.6276 2.50845 28.3159 2.9241 28.0907 3.40904C27.8656 3.89397 27.7617 4.43086 27.7617 4.98507C27.7617 5.71247 27.8829 6.31863 28.1427 6.85552C28.4025 7.37509 28.7488 7.84271 29.1472 8.25836C29.5628 8.67402 30.0304 9.05504 30.55 9.41874C31.0523 9.76512 31.5545 10.1288 32.0568 10.4925C32.4551 10.8043 32.8015 11.0814 33.0959 11.3412C33.4077 11.6009 33.6328 11.8607 33.806 12.1032C33.9965 12.3457 34.1351 12.6054 34.2216 12.8825C34.2909 13.1596 34.3429 13.4541 34.3429 13.8178C34.3429 14.1815 34.2736 14.5452 34.1351 14.8915C34.0138 15.2379 33.806 15.5323 33.5635 15.7921C33.3037 16.0692 33.0093 16.2771 32.6629 16.4329C32.3166 16.5888 31.9182 16.6754 31.5026 16.6754C30.3595 16.6754 29.4243 16.329 28.7142 15.6536C28.2466 15.186 27.9175 14.5625 27.7097 13.8004H27.2594C27.2594 13.939 27.2594 14.0949 27.2421 14.2334C27.2074 14.701 27.1728 15.186 27.1208 15.7402C27.7097 16.2424 28.3678 16.6408 29.0779 16.9525C29.788 17.2469 30.5327 17.3855 31.2947 17.3855C31.9702 17.3855 32.6456 17.2989 33.2864 17.1084C33.9272 16.9179 34.4988 16.6408 35.001 16.2424C35.4859 15.8614 35.8843 15.3765 36.196 14.7876C36.4904 14.1988 36.6463 13.506 36.6463 12.7267C36.6463 12.0512 36.5078 11.4624 36.2133 10.9428C35.9362 10.4232 35.5725 9.95563 35.1396 9.52265Z" fill="#8A8A8A"/>
<path id="Vector_29" d="M23.276 1.39981C23.0336 1.39981 22.7738 1.38249 22.4967 1.36517C22.2023 1.34785 21.9252 1.33053 21.6307 1.31321C21.6134 1.31321 21.5961 1.31321 21.5615 1.31321V1.76351C21.6654 1.81547 21.752 1.85011 21.8212 1.90206C22.0291 2.04062 22.1849 2.23112 22.3062 2.45627C22.4101 2.68142 22.4794 3.01048 22.4967 3.3915C22.4967 3.70324 22.514 4.04962 22.5313 4.43064C22.5313 4.81165 22.5313 5.19268 22.5313 5.60833L22.566 12.9343C22.566 12.9689 22.566 12.9862 22.514 12.9862C22.2196 12.6399 13.1964 2.92388 12.4343 1.97134C12.2785 1.78083 12.1746 1.62496 12.0706 1.4864C11.9667 1.52104 10.1482 1.55568 10.1655 1.45177C9.9404 1.45177 8.83198 1.33053 8.4856 1.31321C8.41633 1.31321 8.34705 1.31322 8.27777 1.2959V1.79815C8.32973 1.83279 8.41632 1.86743 8.46828 1.90206C8.67611 2.04062 8.8493 2.23112 8.97053 2.45627C9.07445 2.68142 9.14372 3.01048 9.16104 3.3915C9.17836 3.70324 9.19568 4.04962 9.19568 4.43064V5.60833C9.19568 6.26646 9.16104 6.90726 9.213 7.56538C9.28228 8.77771 9.23032 9.97272 9.23032 11.1851C9.23032 11.9817 9.23032 12.7438 9.23032 13.4538C9.23032 14.1639 9.213 14.6662 9.19568 14.9606C9.17836 15.3589 9.12641 15.6707 9.02249 15.9131C8.91858 16.1383 8.7627 16.3288 8.55488 16.4674C8.45096 16.5366 8.32973 16.5886 8.2085 16.6579V17.0216H8.32973C8.91858 17.0042 9.47279 17.0042 9.95772 17.0042C10.4427 17.0042 10.9276 17.0042 11.4472 17.0216V16.6059C11.3259 16.554 11.222 16.4847 11.1181 16.4154C10.9276 16.2768 10.8063 16.1037 10.7198 15.8958C10.6332 15.688 10.5812 15.4282 10.5466 15.1165C10.5119 14.874 10.5119 14.5103 10.5119 14.0254V12.6052L10.4946 9.4012L10.5119 4.79434V3.7552C10.5119 3.46077 10.5119 3.21831 10.5292 3.0278C11.4991 4.18817 22.4274 16.3634 23.4319 17.4719L23.6917 17.4199L23.8129 5.4871C23.8129 5.0368 23.8303 4.62115 23.8303 4.27477C23.8303 3.92839 23.8476 3.61664 23.8649 3.3915C23.8822 3.0278 23.9342 2.73338 24.0208 2.50823C24.1074 2.28308 24.2459 2.09257 24.4191 1.9367C24.523 1.8501 24.6616 1.78083 24.8174 1.72887V1.34785C24.3325 1.36517 23.8129 1.39981 23.276 1.39981Z" fill="#8A8A8A"/>
<path id="Vector_30" d="M150.883 16.7099C150.536 16.5714 150.207 16.3116 149.878 15.9305C149.809 15.8613 149.722 15.7227 149.584 15.5322C149.462 15.3417 149.324 15.1166 149.168 14.8568C149.012 14.597 148.856 14.3026 148.718 13.9735C148.562 13.6444 148.423 13.2981 148.319 12.969L144.128 1.10547H143.92C143.366 2.50831 142.812 3.89383 142.223 5.29667C141.998 5.8682 141.755 6.49168 141.478 7.13248C141.219 7.79061 140.959 8.43141 140.682 9.07222C140.422 9.71302 140.162 10.3538 139.902 10.9773C139.643 11.6008 139.4 12.1723 139.158 12.7092C138.569 11.3064 137.98 9.92085 137.408 8.55265C136.837 7.18444 136.3 5.93747 135.85 4.82906C135.295 3.53013 134.776 2.28316 134.274 1.10547H134.066C133.667 2.28316 133.252 3.46085 132.802 4.70782C132.611 5.22739 132.42 5.76428 132.213 6.35313C132.005 6.92466 131.78 7.5135 131.572 8.11967C131.364 8.72584 131.139 9.332 130.914 9.93817C130.689 10.527 130.463 11.1159 130.256 11.6527L129.39 13.9562C129.216 14.3892 129.043 14.8048 128.853 15.1685C128.662 15.5322 128.437 15.844 128.177 16.1037C128.004 16.2769 127.796 16.4328 127.571 16.5713V17.1429C128.108 17.1082 128.628 17.0909 129.165 17.0909C129.649 17.0909 130.152 17.1256 130.689 17.1775C130.758 17.1775 130.81 17.1775 130.862 17.1948V16.6926C130.741 16.606 130.637 16.5194 130.55 16.4328C130.29 16.1211 130.29 15.6015 130.515 14.926C130.654 14.5277 130.758 14.2333 130.827 14.0081C130.896 13.8003 130.948 13.6098 131 13.4366C131.035 13.2807 131.087 13.1075 131.139 12.917C131.208 12.7438 131.277 12.4841 131.381 12.1377C131.537 11.6701 131.728 11.1505 131.918 10.5617C132.109 9.97281 132.317 9.38396 132.524 8.77779C132.732 8.17163 132.94 7.58278 133.148 6.99393C133.356 6.40509 133.546 5.88552 133.702 5.43522C133.702 5.4179 133.719 5.4179 133.754 5.4179C133.771 5.4179 133.771 5.4179 133.771 5.40058L137.114 14.4411C137.27 14.8221 137.374 15.1339 137.46 15.3937C137.53 15.6534 137.564 15.8613 137.564 16.0518C137.564 16.2596 137.53 16.4328 137.426 16.5367C137.322 16.6579 137.201 16.7445 137.045 16.8138V17.1602H137.062C137.443 17.1429 137.789 17.1256 138.136 17.1082C138.465 17.1082 138.759 17.0909 139.019 17.0909H139.556C139.798 17.0909 140.093 17.0909 140.405 17.1082C140.734 17.1082 141.063 17.1256 141.392 17.1256C141.496 17.1256 141.6 17.1429 141.703 17.1429V16.5887C141.426 16.4328 141.149 16.225 140.889 15.9305C140.682 15.6881 140.474 15.3937 140.266 15.0473C140.093 14.7009 139.902 14.3718 139.746 14.0255L143.314 5.43522C143.314 5.4179 143.331 5.4179 143.349 5.4179C143.366 5.4179 143.366 5.4179 143.366 5.40058L146.137 14.4411C146.258 14.8394 146.345 15.1512 146.432 15.3937C146.518 15.6534 146.57 15.8613 146.57 16.0518C146.57 16.2596 146.518 16.4328 146.414 16.5367C146.31 16.6579 146.189 16.7445 146.033 16.8138C145.929 16.8658 145.808 16.8831 145.687 16.9177V17.1775C145.808 17.1775 145.929 17.1602 146.068 17.1602C146.449 17.1429 146.795 17.1256 147.124 17.1082C147.453 17.1082 147.748 17.0909 148.008 17.0909H148.544C148.787 17.0909 149.081 17.0909 149.41 17.1082C149.722 17.1082 150.051 17.1256 150.398 17.1256C150.571 17.1429 150.727 17.1602 150.9 17.1602L150.883 16.7099Z" fill="#8A8A8A"/>
<path id="Vector_31" d="M60.3906 11.4968C59.6459 11.4968 59.0397 10.8907 59.0397 10.1459C59.0397 9.40123 59.6459 8.77774 60.3906 8.77774C61.1526 8.77774 61.7588 9.40123 61.7588 10.1459C61.7588 10.8907 61.1526 11.4968 60.3906 11.4968ZM66.9892 1.41716C66.4176 1.4518 65.8634 1.46912 65.2919 1.46912C65.0494 1.46912 64.8416 1.46912 64.6684 1.4518C64.4779 1.43448 64.3047 1.41716 64.1488 1.39984C63.993 1.3652 63.8198 1.34789 63.6466 1.33057V1.64231C63.7851 1.69427 63.9237 1.76354 64.0449 1.83282C64.1662 1.93673 64.2701 2.07529 64.3393 2.23116C64.4086 2.38703 64.5299 2.56022 64.3567 2.80268C64.2701 2.92392 60.9621 6.68214 60.9621 6.68214C60.9621 6.68214 57.9486 3.46081 57.8101 3.1837C57.6715 2.9066 57.5849 2.68145 57.5849 2.50826C57.5849 2.28312 57.6369 2.12724 57.7408 2.00601C57.8274 1.88477 57.9486 1.79818 58.0872 1.72891C58.1218 1.72891 58.1738 1.71159 58.2084 1.71159V1.38253C58.1565 1.39985 58.1045 1.39984 58.0525 1.39984C57.6888 1.41716 57.3598 1.43448 57.0654 1.4518C56.7536 1.46912 56.4765 1.46912 56.234 1.46912H55.7664C55.524 1.46912 55.2469 1.46912 54.9351 1.4518C54.6234 1.4518 54.277 1.43448 53.9479 1.41716C53.7228 1.41716 53.515 1.39985 53.3071 1.38253V1.78086C53.3937 1.79818 53.463 1.8155 53.5323 1.85014C53.9133 1.98869 54.2597 2.24847 54.5887 2.61217C54.6061 2.66413 58.0525 6.49163 59.0397 7.58273C59.0397 7.60005 59.2476 7.85984 58.9704 8.08498C58.3123 8.5526 57.8967 9.29731 57.8967 10.1459C57.8967 11.0465 58.3643 11.8259 59.0744 12.2762C59.1263 12.3108 59.2649 12.3974 59.2649 12.6918C59.2649 13.5405 59.2476 14.1986 59.2476 14.3891C59.2476 14.8221 59.161 15.8959 59.0397 16.121C58.9358 16.3635 58.7799 16.5367 58.5894 16.6752C58.4682 16.7618 58.3296 16.8311 58.1738 16.9004V17.2641C58.3123 17.2641 58.4336 17.2641 58.5721 17.2641C58.9012 17.2467 59.2302 17.2294 59.542 17.2294C59.871 17.2121 60.1655 17.2121 60.4253 17.2121C60.685 17.2121 60.9968 17.2121 61.3258 17.2294C61.6722 17.2294 62.0186 17.2467 62.365 17.2467C62.4342 17.2467 62.5382 17.2467 62.6248 17.2641V16.8657C62.4342 16.7964 62.2784 16.7272 62.1572 16.6406C61.984 16.502 61.8281 16.3288 61.7588 16.121C61.6722 15.9132 61.6203 15.6534 61.5856 15.3416C61.5683 15.2204 61.5683 15.0645 61.551 14.8567C61.551 14.6316 61.5337 15.0299 61.5337 14.4584V14.3891L61.551 12.8131V12.6052C61.5683 12.484 61.6203 12.3455 61.7588 12.2589H61.7415C62.4343 11.8086 62.9019 11.0292 62.9019 10.1459C62.9019 9.34927 62.5208 8.63919 61.932 8.1889H61.9493C61.6722 7.94643 61.88 7.63469 61.88 7.63469H61.8627C62.694 6.66482 65.136 3.78987 66.5215 2.24848C66.7813 1.98869 67.1277 1.83282 67.4741 1.69427V1.38253C67.3182 1.38253 67.1797 1.39984 66.9892 1.41716Z" fill="#8A8A8A"/>
</g>
<defs>
<clipPath id="clip0_292_519">
<rect width="150" height="30.0312" fill="white" transform="translate(0.899902 0.984375)"/>
</clipPath>
</defs>
</svg>
