<svg width="154" height="30" viewBox="0 0 154 30" fill="none" xmlns="http://www.w3.org/2000/svg">
<g id="isc_logo_in_isc 1" clip-path="url(#clip0_292_384)">
<g id="Group">
<path id="Vector" d="M42.7222 23.0456V11.9092H43.5221V23.0456H42.7222Z" fill="#8A8A8A"/>
<path id="Vector_2" d="M56.0555 11.9929C55.9494 9.34812 54.0067 8.02785 51.2234 8.02785C49.5174 8.02785 47.0891 8.76552 47.0891 11.3181C47.0891 13.8119 49.6644 14.2227 52.2192 14.7634C54.7903 15.304 57.3656 15.9789 57.3656 19.0553C57.3656 22.2617 54.37 23.4101 52.0682 23.4101C48.5461 23.4101 45.677 21.9138 45.7178 17.9278H46.6443C46.4565 21.3061 49.093 22.5844 52.0682 22.5844C53.8802 22.5844 56.4351 21.7378 56.4351 19.0511C56.4351 16.4273 53.8598 15.9747 51.2846 15.434C48.7298 14.8933 46.1586 14.2646 46.1586 11.3181C46.1586 8.35058 48.8359 7.20215 51.2193 7.20215C54.3618 7.20215 56.8309 8.58949 56.9779 11.9887H56.0555V11.9929Z" fill="#8A8A8A"/>
<path id="Vector_3" d="M77.1103 12.1899C76.7104 9.59122 74.4943 8.03204 71.9843 8.03204C68.0419 8.03204 65.7401 11.3432 65.7401 15.3082C65.7401 19.2733 68.0419 22.5886 71.9843 22.5886C74.9187 22.5886 77.196 19.902 77.3633 17.0183H78.2939C77.9551 20.7025 75.2983 23.4101 71.9884 23.4101C67.4746 23.4101 64.8177 19.8349 64.8177 15.304C64.8177 10.7774 67.4746 7.20215 71.9884 7.20215C77.3225 7.20215 78.0245 11.9677 78.0449 12.1857H77.1103V12.1899Z" fill="#8A8A8A"/>
<path id="Vector_4" d="M80.2324 7.5752H81.1629V22.224H89.7049V23.0455H80.2324V7.5752Z" fill="#8A8A8A"/>
<path id="Vector_5" d="M90.7823 7.5752H91.7088V23.0455H90.7823V7.5752Z" fill="#8A8A8A"/>
<path id="Vector_6" d="M94.3697 7.5752H95.5287L105.046 21.7671H105.087V7.5752H106.013V23.0455H104.915L95.3369 8.74458H95.2961V23.0455H94.3656V7.5752H94.3697Z" fill="#8A8A8A"/>
<path id="Vector_7" d="M108.67 7.5752H109.597V23.0455H108.67V7.5752Z" fill="#8A8A8A"/>
<path id="Vector_8" d="M123.987 12.1899C123.587 9.59122 121.371 8.03204 118.861 8.03204C114.915 8.03204 112.617 11.3432 112.617 15.3082C112.617 19.2733 114.915 22.5886 118.861 22.5886C121.791 22.5886 124.073 19.902 124.24 17.0183H125.166C124.828 20.7025 122.171 23.4101 118.861 23.4101C114.347 23.4101 111.686 19.8349 111.686 15.304C111.686 10.7774 114.343 7.20215 118.861 7.20215C124.199 7.20215 124.893 11.9677 124.913 12.1857H123.987V12.1899Z" fill="#8A8A8A"/>
<path id="Vector_9" d="M132.594 7.5752L138.545 23.0455H137.553L135.655 18.0829H128.44L126.521 23.0455H125.53L131.582 7.5752H132.594ZM135.357 17.2572L132.129 8.50149H132.088L128.733 17.2572H135.357Z" fill="#8A8A8A"/>
<path id="Vector_10" d="M139.622 7.5752H140.553V22.224H149.099V23.0455H139.626V7.5752H139.622Z" fill="#8A8A8A"/>
<path id="Vector_11" d="M153.6 9.83023C153.6 11.1379 152.572 12.1942 151.298 12.1942C150.025 12.1942 148.997 11.1379 148.997 9.83023C148.997 8.52253 150.025 7.46631 151.298 7.46631C152.572 7.46631 153.6 8.52253 153.6 9.83023ZM149.233 9.83023C149.233 11.0248 150.135 11.9846 151.307 11.9846C152.482 11.9846 153.368 11.0206 153.368 9.82604C153.368 8.61893 152.49 7.68007 151.307 7.68007C150.119 7.67588 149.233 8.61055 149.233 9.83023ZM150.462 8.43451H151.486C152.102 8.43451 152.372 8.69857 152.372 9.20572C152.372 9.66258 152.057 9.88472 151.67 9.94759L152.482 11.2301H152.225L151.404 9.9434H150.698V11.2301H150.462V8.43451ZM150.698 9.72964H151.278C151.69 9.72964 152.139 9.68773 152.139 9.20153C152.139 8.77401 151.776 8.64408 151.449 8.64408H150.698V9.72964Z" fill="#8A8A8A"/>
<path id="Vector_12" d="M43.9139 8.67775C43.9139 9.13461 43.5548 9.50344 43.1099 9.50344C42.6651 9.50344 42.3059 9.13461 42.3059 8.67775C42.3059 8.22089 42.6651 7.85205 43.1099 7.85205C43.5548 7.85624 43.9139 8.22089 43.9139 8.67775Z" fill="#8A8A8A"/>
</g>
<g id="Group_2">
<g id="Group_3">
<path id="Vector_13" d="M11.6193 27.0141C13.1171 28.6739 15.1577 29.4996 17.733 29.4996C19.7328 29.4996 21.2959 28.9757 22.4223 27.9279C23.5487 26.88 24.1078 25.4214 24.1078 23.5479C24.1078 20.6936 21.5448 18.5057 16.4229 16.9884C15.9985 16.8627 15.672 16.7621 15.4475 16.6866C12.9661 15.9573 11.1133 14.9388 9.88483 13.6311C9.70934 13.4425 9.55017 13.2497 9.39917 13.0527V21.2888C9.5665 23.6569 10.3052 25.5639 11.6193 27.0141Z" fill="#8A8A8A"/>
<path id="Vector_14" d="M29.9316 15.3286C29.9316 12.7132 29.2623 10.2529 28.0869 8.11949L26.3361 8.09434C25.2219 5.47055 24.4261 4.66162 23.165 3.63893C21.7611 2.49888 19.9531 1.63965 17.586 1.63965C15.9168 1.63965 14.5659 2.1007 13.5456 3.0228C12.5213 3.94489 12.0111 5.12267 12.0111 6.5603C12.0111 8.95776 14.4598 10.8103 19.3573 12.1222C19.9082 12.2731 20.3204 12.3989 20.5979 12.4995C23.3487 13.2539 25.3444 14.3185 26.5851 15.6891C27.8257 17.0638 28.4461 18.8913 28.4461 21.1839C28.4461 21.427 28.4379 21.6618 28.4257 21.8965C29.3848 19.9223 29.9316 17.6884 29.9316 15.3286Z" fill="#8A8A8A"/>
<path id="Vector_15" d="M8.94612 4.93006C9.35423 4.15466 9.9052 3.45051 10.599 2.82181C12.1376 1.43447 14.0599 0.671642 16.3739 0.537519C16.0066 0.512371 15.6393 0.495605 15.2679 0.495605C12.0519 0.495605 9.08079 1.54344 6.66064 3.31639C7.68094 3.39183 8.54208 4.03311 8.94612 4.93006Z" fill="#8A8A8A"/>
<path id="Vector_16" d="M3.71813 14.5453C3.71813 13.4136 3.67732 11.0539 3.67732 11.0539L4.94657 11.0078C4.94657 11.0078 6.79127 10.8443 8.26867 10.685C8.12174 10.0899 8.0442 9.45697 8.0442 8.79054C8.0442 8.61869 8.04828 8.45104 8.05645 8.28338C7.60751 8.61031 7.05655 8.8073 6.4607 8.8073C4.98738 8.8073 3.78751 7.62115 3.74262 6.1416C1.77956 8.66899 0.600098 11.8586 0.600098 15.3291C0.600098 18.7785 1.76324 21.9556 3.71813 24.4788V14.5453Z" fill="#8A8A8A"/>
</g>
</g>
</g>
<defs>
<clipPath id="clip0_292_384">
<rect width="153" height="29" fill="white" transform="translate(0.600098 0.5)"/>
</clipPath>
</defs>
</svg>
