<svg width="151" height="28" viewBox="0 0 151 28" fill="none" xmlns="http://www.w3.org/2000/svg">
<g id="Group">
<path id="Vector" d="M57.7209 24.02C57.6636 23.4545 57.0881 23.2973 56.4344 23.2973C55.8592 23.2973 55.3727 23.5834 55.3727 24.03C55.3727 24.2495 55.5059 24.472 56.0032 24.556L57.5084 24.813C58.1618 24.9245 58.4629 25.2991 58.4629 25.7965C58.4629 26.6012 57.7414 27.0877 56.5451 27.0877C55.401 27.0877 54.7341 26.6619 54.6621 25.7729H55.2775C55.2938 26.3167 55.8143 26.6286 56.5791 26.6286C57.4183 26.6286 57.8812 26.2993 57.8812 25.8584C57.8812 24.7406 54.7902 25.7504 54.7902 24.0645C54.7902 23.2877 55.4521 22.8418 56.5528 22.8418C57.3892 22.8418 58.2794 23.0911 58.3352 24.0203L57.7209 24.02Z" fill="#A8A8A8"/>
<path id="Vector_2" d="M62.3879 22.9448H62.9673V24.7519L65.136 22.9448H65.9867L63.695 24.7682L66.1767 26.9813H65.3268L62.9673 24.8193V26.9813H62.3879V22.9448Z" fill="#A8A8A8"/>
<path id="Vector_3" d="M70.4846 22.9448H69.9041V26.9813H70.4846V22.9448Z" fill="#A8A8A8"/>
<path id="Vector_4" d="M78.3577 22.9448H78.9383V26.9813H78.1441L75.6747 23.5386H75.6624V26.9813H75.0818V22.9448H75.8748L78.3457 26.3891H78.3577V22.9448Z" fill="#A8A8A8"/>
<path id="Vector_5" d="M87.7883 26.9813H87.2065V22.9448H89.1886C90.4368 22.9448 90.7159 23.3644 90.7159 24.0142C90.7159 24.5054 90.3575 24.8746 89.7932 24.9536V24.9633C90.3354 25.0306 90.4786 25.2481 90.5862 25.9305C90.6543 26.3617 90.7043 26.7181 90.8169 26.9813H90.2003C90.0943 26.6968 90.0335 26.1314 89.9263 25.6785C89.859 25.3882 89.6697 25.18 88.9103 25.18H87.7883V26.9813ZM87.7883 24.7237H89.1096C89.725 24.7237 90.1001 24.5766 90.1001 24.0642C90.1001 23.5715 89.8338 23.4058 89.1232 23.4058H87.7887L87.7883 24.7237Z" fill="#A8A8A8"/>
<path id="Vector_6" d="M95.447 22.9448H98.4648V23.4058H96.0284V24.6772H98.3088V25.1374H96.0284V26.5231H98.5329V26.9813H95.447V22.9448Z" fill="#A8A8A8"/>
<path id="Vector_7" d="M106.126 24.02C106.07 23.4545 105.495 23.2973 104.84 23.2973C104.266 23.2973 103.78 23.5834 103.78 24.03C103.78 24.2495 103.914 24.472 104.411 24.556L105.915 24.813C106.568 24.9245 106.871 25.2991 106.871 25.7965C106.871 26.6012 106.151 27.0877 104.953 27.0877C103.808 27.0877 103.141 26.6619 103.068 25.7729H103.683C103.701 26.3167 104.22 26.6286 104.987 26.6286C105.824 26.6286 106.288 26.2993 106.288 25.8584C106.288 24.7406 103.198 25.7504 103.198 24.0645C103.198 23.2877 103.859 22.8418 104.958 22.8418C105.798 22.8418 106.686 23.0911 106.742 24.0203L106.126 24.02Z" fill="#A8A8A8"/>
<path id="Vector_8" d="M111.405 22.9448H114.423V23.4058H111.987V24.6772H114.266V25.1374H111.987V26.5231H114.491V26.9813H111.405V22.9448Z" fill="#A8A8A8"/>
<path id="Vector_9" d="M122.156 25.9305H119.68L119.159 26.9813H118.511L120.584 22.9448H121.267L123.341 26.9813H122.676L122.156 25.9305ZM121.931 25.4722L120.925 23.4368L119.914 25.4722H121.931Z" fill="#A8A8A8"/>
<path id="Vector_10" d="M127.681 26.9813H127.099V22.9448H129.084C130.33 22.9448 130.61 23.3644 130.61 24.0142C130.61 24.5054 130.251 24.8746 129.687 24.9536V24.9633C130.229 25.0306 130.376 25.2481 130.482 25.9305C130.547 26.3617 130.599 26.7181 130.71 26.9813H130.095C129.99 26.6968 129.928 26.1314 129.822 25.6785C129.757 25.3882 129.564 25.18 128.803 25.18H127.681V26.9813ZM127.681 24.7237H129.005C129.621 24.7237 129.995 24.5766 129.995 24.0642C129.995 23.5715 129.727 23.4058 129.018 23.4058H127.681V24.7237H127.681Z" fill="#A8A8A8"/>
<path id="Vector_11" d="M138.916 25.858C138.787 26.7463 137.948 27.0877 136.961 27.0877C135.517 27.0877 134.852 26.0759 134.852 24.9636C134.852 24.0041 135.426 22.8418 137.122 22.8418C138.076 22.8418 138.808 23.319 138.859 24.0095H138.21C138.11 23.4831 137.634 23.2977 137.077 23.2977C136.153 23.2977 135.466 23.8295 135.466 24.964C135.466 26.098 136.153 26.6314 137.077 26.6314C137.629 26.6314 138.166 26.3852 138.265 25.8588H138.916V25.858Z" fill="#A8A8A8"/>
<path id="Vector_12" d="M146.159 25.1038H143.566V26.9813H142.984V22.9448H143.566V24.6447H146.159V22.9448H146.74V26.9813H146.159V25.1038Z" fill="#A8A8A8"/>
<path id="Vector_13" d="M148.786 22.7036C149.472 22.7036 150.028 23.2582 150.028 23.9437C150.028 24.6284 149.472 25.183 148.786 25.183C148.101 25.183 147.548 24.628 147.548 23.9437C147.548 23.2582 148.101 22.7036 148.786 22.7036ZM148.786 24.9133C149.352 24.9133 149.739 24.4887 149.739 23.9437C149.739 23.3976 149.352 22.9695 148.786 22.9695C148.223 22.9695 147.835 23.3972 147.835 23.9437C147.835 24.4887 148.223 24.9133 148.786 24.9133ZM148.301 23.2505H148.832C149.184 23.2505 149.367 23.3643 149.367 23.6569C149.367 23.9038 149.211 24.0099 149.005 24.0304L149.378 24.6404H149.071L148.719 24.0304H148.569V24.6404H148.301V23.2505ZM148.804 23.8411C148.947 23.8411 149.08 23.8195 149.08 23.6275C149.08 23.4661 148.922 23.4413 148.806 23.4413H148.57V23.8411H148.804Z" fill="#A8A8A8"/>
<path id="Vector_14" d="M54.7273 1.14551H58.3965L64.362 10.4156L70.3275 1.14551H73.9959V20.7501H70.5524V6.69031L64.362 15.9341H64.2502L58.1166 6.74682V20.7501H54.7273V1.14551Z" fill="#A8A8A8"/>
<path id="Vector_15" d="M84.5856 1.00586H87.7768L96.4028 20.7506H92.7623L90.7733 16.017H81.5039L79.4878 20.7506H75.9587L84.5856 1.00586ZM89.5146 12.9636L86.1237 5.1217L82.7645 12.9636H89.5146Z" fill="#A8A8A8"/>
<path id="Vector_16" d="M98.365 1.14551H107.103C109.568 1.14551 111.501 1.87315 112.762 3.1055C113.798 4.16949 114.386 5.62633 114.386 7.33474V7.39009C114.386 10.6107 112.453 12.5444 109.709 13.3277L115.001 20.7505H110.94L106.124 13.9161H106.067H101.811V20.7505H98.3654V1.14551H98.365ZM106.852 10.8642C109.315 10.8642 110.885 9.57612 110.885 7.58632V7.53098C110.885 5.42932 109.373 4.28212 106.824 4.28212H101.81V10.8638L106.852 10.8642Z" fill="#A8A8A8"/>
<path id="Vector_17" d="M120.855 1.14551H117.412V20.7501H120.855V1.14551Z" fill="#A8A8A8"/>
<path id="Vector_18" d="M124.694 1.14551H127.886L138.388 14.701V1.14551H141.778V20.7501H138.894L128.082 6.80294V20.7501H124.694V1.14551Z" fill="#A8A8A8"/>
<path id="Vector_19" d="M149.06 1.14551H145.617V20.7501H149.06V1.14551Z" fill="#A8A8A8"/>
<g id="Group_2">
<path id="Vector_20" d="M11.8721 14.1021C11.8721 18.1006 9.94774 20.4883 6.72482 20.4883C4.43932 20.4883 2.54512 19.1445 1.65762 16.8946L1.63634 16.8404L0.972168 17.1392L0.991907 17.1891C1.9661 19.6395 4.14091 21.1614 6.66792 21.1614C8.30706 21.1614 9.67333 20.6261 10.7296 19.5702C11.972 18.3278 12.6021 16.4592 12.6021 14.0173V1.05322H11.8729V14.1021H11.8721Z" fill="#A8A8A8"/>
<path id="Vector_21" d="M23.3464 0.912598H22.7411L13.2097 20.8516H13.9803L16.793 14.9441H29.267L32.0646 20.8203L32.0797 20.8516H32.877L23.3615 0.944335L23.3464 0.912598ZM28.9334 14.2711H17.1266L23.0298 1.91233L28.9334 14.2711Z" fill="#A8A8A8"/>
<path id="Vector_22" d="M50.7924 1.05322V19.6252L35.9291 1.07374L35.9125 1.05322H35.2952V20.8517H35.9977V2.27899L50.8617 20.8308L50.8784 20.8517H51.4949V1.05322H50.7924Z" fill="#A8A8A8"/>
</g>
</g>
</svg>
