<svg width="159" height="50" viewBox="0 0 159 50" fill="none" xmlns="http://www.w3.org/2000/svg">
<g id="Group 9">
<path id="Vector" fill-rule="evenodd" clip-rule="evenodd" d="M77.9678 0.0805664H77.2666C77.2387 0.391177 77.1345 0.30748 77.3224 0.592051L78.1575 1.86425C79.0633 1.86425 80.077 1.63176 80.5438 1.96283C81.537 2.66589 81.2487 3.15505 81.6114 3.4452C81.9555 3.72047 82.5656 3.58098 82.6176 4.15942C81.9072 4.15942 81.4422 4.40307 80.9976 4.7546C80.4694 5.17495 80.5792 5.02243 80.7651 5.58786C80.9232 6.06958 81.0534 6.51039 81.79 6.13468C82.6604 5.69201 82.573 6.30765 82.9376 4.79552C83.3523 4.90712 83.2314 5.13031 83.2649 5.48742C83.3281 6.18862 84.0461 6.97351 84.5873 7.15951C84.6096 7.62821 84.7268 7.91279 84.7268 8.36475C84.725 8.98597 84.5576 8.95249 84.2395 9.21846C83.8861 9.51606 84.0033 9.84713 84.1558 10.2042C84.3976 10.7697 84.4032 10.619 84.0833 11.1044C83.3765 10.6357 83.7857 9.97174 82.5823 9.73739C82.2271 9.66857 81.6951 9.47514 81.4291 9.85085C80.9567 10.5223 80.648 12.7226 82.2289 12.3729C82.8241 12.2409 82.8706 12.4975 83.304 12.0456C83.5011 11.8391 83.7931 11.5099 84.02 11.3593C84.02 12.04 83.6853 12.5403 83.1403 12.9012C82.5581 13.288 81.7714 12.7821 81.2171 13.2713C81.2655 13.8181 81.723 15.6948 80.2611 15.6911C80.3355 15.3805 80.5401 14.7927 80.4936 14.4449C80.4378 14.045 80.3839 13.541 80.1718 13.2322C79.9635 12.9272 79.6231 12.6184 79.2642 12.7747C78.5741 13.0778 76.0521 13.5038 77.7018 14.8095C77.9585 15.014 78.3695 15.2093 78.576 15.4642C79.0931 16.1021 79.1284 15.427 79.506 16.0091C78.881 17.0377 77.6683 15.5571 77.0099 15.4995C76.5747 15.7934 76.1469 16.4741 75.6838 16.8498C75.1091 17.3148 74.339 17.2237 73.8871 16.6489C73.5039 16.1653 73.2491 15.4437 72.7897 15.0698C72.4475 14.7909 72.0755 14.856 71.6812 14.895C71.3352 14.9285 71.3148 14.6458 70.82 14.5528C69.7413 14.3538 70.249 13.4201 70.2621 12.6966C70.2788 11.8931 69.5516 11.7164 69.1944 11.1454C68.7239 10.3884 69.7673 9.72809 69.4567 9.10501C69.0996 8.39265 68.4877 8.27919 68.7276 7.3455C69.5534 7.42362 69.3879 9.04363 71.1567 8.69024C71.5547 8.61026 71.7816 8.65118 71.9341 8.19364C72.0532 7.83839 72.1164 7.46268 71.7891 7.21531C71.5343 7.02187 71.365 6.78752 71.1139 6.61454C70.063 5.89103 69.9645 7.04233 69.3414 6.86006C69.1851 6.30207 70.1988 6.17932 70.5038 5.87057C70.9986 5.36652 70.1412 4.93688 70.595 4.11292C70.6973 3.92693 71.4357 2.97278 71.5826 2.87234C72.0011 2.58963 73.0334 2.70495 73.5058 2.82026C73.5058 2.08744 73.8573 1.88843 74.2442 1.39183C74.6794 0.833843 74.8933 0.655289 75.6726 0.655289C75.2207 1.55364 74.512 2.22136 74.7073 3.28339C74.8914 4.28032 75.0886 3.94739 75.9367 3.91577C76.969 3.87857 77.4135 3.74093 77.1569 2.76632C77.0583 2.38876 76.9504 2.00933 76.8407 1.65222C76.6863 1.14445 76.5561 0.324219 76.0037 0.190303C75.176 -0.0124306 73.3756 0.824544 72.6149 1.22815C70.8238 2.17486 69.2 4.36959 68.5304 6.25558C67.5521 9.00643 67.6209 10.8999 69.027 13.4796C71.1567 17.3873 74.0638 18.2392 78.1631 17.4803C79.6994 17.1958 80.09 17.0377 81.3696 16.1635C83.6853 14.5881 84.3418 13.4052 84.9463 10.6934C85.2327 9.41004 85.3722 7.79933 85.11 6.51039C84.8273 5.13775 84.4404 4.57419 83.5458 3.54936C82.8929 2.80166 81.9927 1.96283 81.1781 1.39369C80.0137 0.580891 79.2958 0.430236 77.9678 0.0805664Z" fill="#8A8A8A"/>
<path id="Vector_2" fill-rule="evenodd" clip-rule="evenodd" d="M75.1328 15.3429C74.666 14.7812 74.5655 14.2307 73.5705 14.7347C73.6579 15.542 73.9443 16.1185 74.8483 16.2022C76.4962 16.3529 75.9624 14.5264 75.7447 13.643L74.3795 10.8679C73.8643 10.0068 73.5984 10.1872 73.4291 9.07865C73.3157 8.34211 73.4756 7.52374 73.8867 6.89694C74.214 6.39847 74.8836 5.99115 75.3839 5.65264C76.6747 4.78404 77.136 5.30483 77.4726 5.18579C77.7572 4.52551 76.0833 4.39718 74.3963 5.68612C71.9095 7.58512 73.005 9.78915 74.307 11.9597C74.7925 12.7706 75.8787 14.4167 75.1328 15.3429Z" fill="#8A8A8A"/>
<path id="Vector_3" fill-rule="evenodd" clip-rule="evenodd" d="M75.9276 12.379C76.3852 12.379 76.3052 12.2562 76.7088 12.2953C76.9729 12.3232 77.2761 12.2599 77.5346 12.2023C78.1707 12.0554 78.3307 11.9754 78.8868 11.6406C79.813 11.0863 80.5217 10.6381 80.5161 9.44772C80.5012 6.36207 78.725 3.95531 79.0486 3.32851C79.5359 2.65893 80.0102 3.89207 80.6426 3.90323C80.8323 3.13507 80.6165 2.66451 79.8223 2.48967C79.2625 2.36878 78.4906 2.54361 78.5427 3.51636C78.6785 6.08122 81.2601 8.67956 79.2588 10.8669C77.6704 12.6022 76.2308 11.276 75.9276 12.379Z" fill="#8A8A8A"/>
<path id="Vector_4" fill-rule="evenodd" clip-rule="evenodd" d="M77.2259 7.06629C77.4193 7.12581 77.6983 7.20393 77.8787 7.30437C78.8905 7.87351 78.5966 8.97087 78.1391 9.80971C77.8248 10.3863 77.6834 10.3863 77.0492 10.5053C76.2308 10.6597 74.979 9.95664 74.9065 9.06387C74.8377 8.1804 75.299 7.44758 76.0727 7.10721C76.4614 6.9361 76.8018 6.99189 77.2259 7.06629ZM75.8625 6.64223C74.8488 7.17603 74.5103 7.3304 74.462 8.80906C74.4397 9.54374 74.2481 9.78739 75.1502 10.3528C75.6561 10.669 76.2364 10.9908 76.8241 11.0373C79.7554 11.2735 79.8353 7.04211 77.2519 6.40043C76.7813 6.28512 76.2903 6.41717 75.8625 6.64223Z" fill="#8A8A8A"/>
<path id="Vector_5" fill-rule="evenodd" clip-rule="evenodd" d="M72.8042 5.63494C73.3287 5.08254 73.5835 5.08626 73.7862 4.68823C74.0373 4.19163 73.3789 3.40673 72.6535 3.29141C70.7117 2.97894 71.2139 5.22761 71.5134 5.57914C72.103 6.27662 72.2778 6.1892 72.8042 5.63494Z" fill="#8A8A8A"/>
<path id="Vector_6" fill-rule="evenodd" clip-rule="evenodd" d="M72.8042 12.2504C72.7577 12.2616 72.5996 12.2597 72.5122 12.2765C72.2834 12.3174 71.9449 12.4327 71.651 12.4364C71.532 12.4383 71.1525 12.2244 70.8587 12.8512C70.4644 13.69 70.9684 14.2443 71.9077 14.1606C72.3578 14.1215 72.8637 14.1271 73.0906 14.0006C73.6579 13.6882 74.4167 13.8053 73.723 12.5443C73.4682 12.083 73.0534 12.1909 72.8042 12.2504Z" fill="#8A8A8A"/>
<path id="Vector_7" fill-rule="evenodd" clip-rule="evenodd" d="M71.469 11.4894C71.8056 11.4857 72.2148 11.4466 72.4362 11.1788C72.6575 10.9128 72.73 10.5427 72.5943 10.234C72.2836 9.52904 71.4504 9.62762 70.7808 9.55322C69.8862 9.45465 68.6065 11.521 71.469 11.4894Z" fill="#8A8A8A"/>
<path id="Vector_8" fill-rule="evenodd" clip-rule="evenodd" d="M82.173 6.77086C81.3491 7.11122 81.3081 7.33814 81.5406 8.16767C81.6522 8.56942 81.7136 8.66986 82.1712 8.68288C82.9189 8.70892 82.9189 8.82795 83.1569 8.71264C83.3894 8.60104 83.8451 8.53408 83.9288 8.33507C84.1687 7.76964 83.5382 7.19306 83.0863 6.94197C82.7384 6.74854 82.558 6.6109 82.173 6.77086Z" fill="#8A8A8A"/>
<path id="Vector_9" fill-rule="evenodd" clip-rule="evenodd" d="M76.2475 7.79007C75.8922 8.0207 75.6263 8.48941 75.6728 8.93207C75.7341 9.49749 76.4651 9.38962 76.8445 9.28174C78.2599 8.87999 76.7925 7.43668 76.2475 7.79007Z" fill="#8A8A8A"/>
<path id="Vector_10" d="M0.581073 36.6489C0.754048 36.6972 0.876804 36.7233 1.27111 36.7233C1.63938 36.7233 2.57307 36.6005 2.84276 36.6005C2.9897 36.6005 4.09636 36.7233 4.34188 36.7233C4.66179 36.7233 5.03006 36.6489 5.30161 36.5503V36.3048C5.08027 36.3792 4.71201 36.4517 4.56321 36.4517C4.41628 36.4517 4.21912 36.3792 4.17076 36.3531C3.7281 35.9607 3.55512 35.5924 3.55512 35.027V29.7913C4.09636 29.9624 4.44045 30.0851 5.30161 30.0851C7.71023 30.0851 9.45486 28.7348 9.45486 26.8414C9.45486 24.5555 7.5633 23.8413 5.66988 23.8413C4.49067 23.8413 3.40819 23.9659 2.91716 23.9659C2.59725 23.9659 0.900983 23.8413 0.532715 23.8413V24.1631C0.729869 24.137 0.876804 24.137 1.07396 24.137C2.05601 24.137 2.17876 24.5313 2.17876 25.9319V35.1014C2.17876 36.0351 1.86071 36.2322 1.63938 36.3792C1.61334 36.4034 1.19671 36.4517 1.04792 36.4517C0.951202 36.4517 0.828446 36.4275 0.581073 36.3792V36.6489ZM3.55512 24.8996C3.55512 24.3584 3.90107 24.2356 4.73618 24.2356C6.48081 24.2356 8.00596 25.0707 8.00596 27.0869C8.00596 29.0789 6.13672 29.6685 5.10445 29.6685C4.3177 29.6685 3.92525 29.4472 3.55512 29.2742V24.8996ZM14.4953 30.2339H21.6468V34.8559C21.6468 35.665 21.3287 36.4275 20.7875 36.4275C20.542 36.4275 20.2704 36.4034 20.0249 36.4034V36.6731C20.4676 36.6972 20.6145 36.7233 20.9344 36.7233C21.2785 36.7233 21.9425 36.6005 22.3368 36.6005C22.7534 36.6005 23.2947 36.7233 24.18 36.7233C24.3753 36.7233 24.4014 36.7233 24.5725 36.6972V36.4034C24.4497 36.4275 24.327 36.4275 24.2042 36.4275C23.9587 36.4275 23.6146 36.3531 23.4918 36.2564C23.3431 36.1578 23.025 35.7635 23.025 34.8559V25.7106C23.025 24.801 23.3431 24.4086 23.4918 24.31C23.6146 24.2114 23.9587 24.137 24.2042 24.137C24.327 24.137 24.4497 24.137 24.5725 24.1631V23.8673C24.4014 23.8413 24.3753 23.8413 24.18 23.8413C23.2947 23.8413 22.7534 23.9659 22.3368 23.9659C21.9425 23.9659 21.2785 23.8413 20.9344 23.8413C20.6145 23.8413 20.4676 23.8673 20.0249 23.8915V24.1631C20.2704 24.1631 20.542 24.137 20.7875 24.137C21.3287 24.137 21.6468 24.8996 21.6468 25.7106V29.7913H14.4953V25.8091C14.4953 25.2679 14.4953 24.137 15.8214 24.137C15.9702 24.137 16.0688 24.1631 16.1897 24.1873V23.9157C15.8717 23.8413 15.8214 23.8413 15.3546 23.8413C15.1333 23.8413 14.0526 23.9659 13.8071 23.9659C13.5598 23.9659 12.4047 23.8413 12.1592 23.8413C11.8895 23.8413 11.8653 23.8413 11.644 23.8673V24.1631C12.1592 24.137 12.2094 24.137 12.3062 24.137C12.6763 24.137 13.1189 24.5313 13.1189 25.5134V35.0028C13.1189 35.7896 12.946 36.0835 12.7488 36.2806C12.6019 36.4034 12.3805 36.4275 12.2336 36.4275C12.0606 36.4275 11.9379 36.4275 11.7668 36.4034V36.6972C11.9621 36.6972 12.1834 36.7233 12.3805 36.7233C12.946 36.7233 13.3384 36.6489 13.8555 36.6489C14.4451 36.6489 15.1835 36.7233 15.4774 36.7233C15.7731 36.7233 15.9702 36.6972 16.1414 36.6731V36.4275H15.4048C15.1333 36.3792 14.4953 35.9365 14.4953 35.0512V30.2339ZM31.8244 23.8673C31.6031 23.8413 31.5789 23.8413 31.3073 23.8413C31.0376 23.8413 29.8324 23.9399 29.5627 23.9399C29.0215 23.9399 28.1863 23.8413 27.6451 23.8413L27.2768 23.8673V24.1631C27.4238 24.137 27.5726 24.137 27.7195 24.137C28.8001 24.137 28.8001 24.8996 28.8001 25.8333V34.8559C28.8001 35.7152 28.8001 36.4275 27.8181 36.4275C27.6451 36.4275 27.474 36.4275 27.3252 36.4034V36.7233H28.4077C28.5546 36.7233 29.3414 36.6247 29.5143 36.6247C29.7096 36.6247 30.6452 36.7233 30.8647 36.7233H31.7016V36.4034C31.5789 36.4275 31.4561 36.4275 31.3575 36.4275C30.1765 36.4275 30.1765 35.3711 30.1765 34.8801V25.8091C30.1765 25.2195 30.2267 24.137 31.3334 24.137C31.4803 24.137 31.6514 24.137 31.8244 24.1631V23.8673ZM37.4526 25.1451C37.4526 24.7025 37.6255 24.4569 37.7725 24.31C37.8952 24.1873 38.0924 24.137 38.4848 24.137C38.7564 24.137 38.8048 24.137 38.9777 24.1631V23.8915C38.682 23.8673 38.4123 23.8413 38.0924 23.8413C37.5511 23.8413 36.9132 23.9901 36.6919 23.9901C36.4463 23.9901 35.7582 23.8413 35.0439 23.8413C34.8226 23.8413 34.6273 23.8673 34.4302 23.8915V24.1631C34.5529 24.137 34.6999 24.137 34.8226 24.137C36.0762 24.137 36.0762 25.2195 36.0762 26.2016V35.2967C36.0762 36.0593 35.8307 36.4778 34.9956 36.4778C34.8468 36.4778 34.6999 36.4778 34.5529 36.4517V36.7233C34.6757 36.7475 34.8226 36.7716 34.9696 36.7716C35.0942 36.7716 35.2169 36.7475 35.4122 36.7233H40.5754C41.2878 36.7233 42.0262 36.7474 42.7385 36.7716C42.8371 36.3531 43.5495 35.4195 43.7206 35.1498C44.1149 34.5341 44.1149 34.2161 44.1149 33.8218H43.9419C43.8694 34.6327 43.4267 35.0028 42.7385 35.4195C41.6821 36.0835 40.6238 36.3048 39.1991 36.3048C37.6014 36.3048 37.4526 35.9123 37.4526 35.3469V25.1451ZM50.4815 23.8673C50.2601 23.8413 50.236 23.8413 49.9644 23.8413C49.6947 23.8413 48.4895 23.9399 48.2198 23.9399C47.6785 23.9399 46.8434 23.8413 46.3022 23.8413L45.9339 23.8673V24.1631C46.0808 24.137 46.2296 24.137 46.3766 24.137C47.4572 24.137 47.4572 24.8996 47.4572 25.8333V34.8559C47.4572 35.7152 47.4572 36.4275 46.4752 36.4275C46.3022 36.4275 46.1311 36.4275 45.9823 36.4034V36.7233H47.0648C47.2117 36.7233 47.9984 36.6247 48.1714 36.6247C48.3667 36.6247 49.3023 36.7233 49.5217 36.7233H50.3587V36.4034C50.236 36.4275 50.1132 36.4275 50.0146 36.4275C48.8336 36.4275 48.8336 35.3711 48.8336 34.8801V25.8091C48.8336 25.2195 48.8838 24.137 49.9886 24.137C50.1374 24.137 50.3085 24.137 50.4815 24.1631V23.8673ZM52.9143 36.6489C53.0872 36.6972 53.21 36.7233 53.6025 36.7233C53.9707 36.7233 54.9063 36.6005 55.176 36.6005C55.3229 36.6005 56.4296 36.7233 56.6751 36.7233C56.995 36.7233 57.3633 36.6489 57.6348 36.5503V36.3048C57.4135 36.3792 57.0433 36.4517 56.8964 36.4517C56.7495 36.4517 56.5523 36.3792 56.504 36.3531C56.0613 35.9607 55.8883 35.5924 55.8883 35.027V29.7913C56.4296 29.9624 56.7737 30.0851 57.6348 30.0851C60.0434 30.0851 61.7881 28.7348 61.7881 26.8414C61.7881 24.5555 59.8965 23.8413 58.0031 23.8413C56.8239 23.8413 55.7414 23.9659 55.2504 23.9659C54.9305 23.9659 53.2342 23.8413 52.8659 23.8413V24.1631C53.0612 24.137 53.21 24.137 53.4072 24.137C54.3892 24.137 54.512 24.5313 54.512 25.9319V35.1014C54.512 36.0351 54.1921 36.2322 53.9707 36.3792C53.9465 36.4034 53.5299 36.4517 53.3811 36.4517C53.2825 36.4517 53.1598 36.4275 52.9143 36.3792V36.6489ZM55.8883 24.8996C55.8883 24.3584 56.2324 24.2356 57.0694 24.2356C58.814 24.2356 60.3373 25.0707 60.3373 27.0869C60.3373 29.0789 58.4699 29.6685 57.4377 29.6685C56.6509 29.6685 56.2584 29.4472 55.8883 29.2742V24.8996Z" fill="#8A8A8A"/>
<path id="Vector_11" d="M65.2437 36.6735C65.5133 36.7237 65.5636 36.7237 65.9318 36.7237C66.3243 36.7237 66.8413 36.5749 67.0869 36.5749C67.3565 36.5749 68.3163 36.7237 68.8315 36.7237V36.428C68.7087 36.4522 68.6101 36.4522 68.4874 36.4522C67.5537 36.4522 67.4793 35.6915 67.5295 34.7075L67.9964 25.9323H68.0466L72.0269 36.2067L72.397 36.1341L76.4033 26.0049H76.4517L77.1659 34.0435C77.2142 34.609 77.2142 35.0275 77.2142 35.1019C77.2142 35.8142 77.1398 36.4522 76.2062 36.4522C76.0592 36.4522 75.9123 36.4522 75.7635 36.428V36.6977C75.8862 36.7237 75.9365 36.7237 76.2303 36.7237C76.4777 36.7237 77.6569 36.5749 77.9266 36.5749C78.1238 36.5749 79.156 36.7237 79.4015 36.7237C79.7214 36.7237 79.9186 36.6977 80.1641 36.6493V36.3796C79.9911 36.428 79.7958 36.4522 79.6229 36.4522C78.7394 36.4522 78.5422 35.6412 78.4678 34.6592L77.7053 25.7594C77.6086 24.7271 77.8541 24.4816 78.1982 24.1375C78.3693 24.1133 78.5162 24.1133 78.6892 24.1133C78.8361 24.1133 78.9849 24.1375 79.1318 24.1375V23.892C78.9105 23.8678 78.7134 23.8418 78.3693 23.8418C77.6327 23.8418 76.7232 23.9403 76.2806 25.0972L72.6667 34.3151L68.7831 24.383C68.586 23.8678 67.6039 23.8418 67.1613 23.8418C66.9641 23.8418 66.8897 23.8418 66.2759 23.892V24.1133C66.9641 24.1133 67.7006 24.1635 67.6039 25.4655L66.9883 34.4862C66.8413 36.4522 66.129 36.4522 65.7589 36.4522C65.5877 36.4522 65.4148 36.428 65.2437 36.4038V36.6735ZM82.9168 35.0275C82.5727 35.9128 82.1059 36.2811 81.8604 36.4522C81.4177 36.4782 81.3675 36.4782 81.148 36.428V36.6977C81.2708 36.7237 81.295 36.7237 81.5646 36.7237C81.8102 36.7237 82.4258 36.6251 82.8424 36.6251C83.0898 36.6251 83.9733 36.7237 84.1704 36.7237C84.4662 36.7237 84.4903 36.7237 84.6373 36.6977V36.4782H84.1965C84.0477 36.4782 83.8747 36.4782 83.6794 36.4038C83.5306 36.2569 83.3595 36.0597 83.3595 35.6412C83.3595 35.2488 83.5808 34.5606 83.6794 34.3151L84.9814 30.9951H88.9635L90.6356 35.273C90.7342 35.5427 90.7342 35.8142 90.7342 35.8886C90.7342 36.1825 90.6356 36.2811 90.3399 36.4522C89.9232 36.4782 89.8488 36.4782 89.4806 36.428V36.6977C89.6777 36.7237 89.7019 36.7237 89.9958 36.7237C90.2171 36.7237 91.2996 36.6251 91.5451 36.6251C91.8408 36.6251 93.2655 36.7237 93.3139 36.7237C93.4125 36.7237 93.5111 36.6977 93.5855 36.6977V36.4522C93.4627 36.4782 93.3399 36.4782 93.2172 36.4782C93.0684 36.4782 92.9456 36.4782 92.7243 36.3796C92.4546 36.1081 92.3802 36.0355 92.1347 35.3957L87.6615 23.8678C87.6374 23.7934 87.5871 23.745 87.5388 23.6948H87.3416C87.2933 23.719 87.2672 23.7692 87.2431 23.8176L82.9168 35.0275ZM85.1543 30.5543L86.9734 25.9082L88.8166 30.5543H85.1543ZM98.133 29.8159C98.2558 29.8903 98.9681 30.0614 99.1151 30.1358C99.5094 30.3571 100.716 32.2971 101.131 33.0113C102.976 36.1806 105.368 38.6953 106.891 38.6953C107.702 38.6953 108.132 38.5111 108.476 38.3623V38.167C108.18 38.2898 107.89 38.4107 107.57 38.4107C106.44 38.4107 104.312 35.4701 103.426 34.1868C101.849 31.899 101.427 31.1681 100.467 30.0856C102.926 29.9387 104.278 28.5865 104.278 27.013C104.278 25.1214 102.779 23.8176 100.395 23.8176C100.099 23.8176 99.7307 23.8418 99.4108 23.8418L97.469 23.9162C97.2719 23.9162 96.2898 23.8418 96.0685 23.8418C95.6984 23.8418 95.6984 23.8418 95.4045 23.8678V24.1635C95.5514 24.1635 95.7486 24.1375 95.9197 24.1375C96.7808 24.1375 96.8292 24.8257 96.8292 25.3427V34.8563C96.8292 35.6654 96.7306 35.9128 96.2898 36.3796C96.0927 36.4038 95.8955 36.428 95.6984 36.428C95.5272 36.428 95.3803 36.4038 95.1831 36.3796V36.6735C95.4287 36.7237 95.5756 36.7237 95.7727 36.7237C96.0927 36.7237 96.9036 36.601 97.2719 36.601C97.8131 36.601 98.7468 36.7237 99.0183 36.7237C99.2397 36.7237 99.4108 36.6977 99.608 36.6735V36.4038C99.4108 36.428 99.1895 36.4522 98.944 36.4522C98.4269 36.3052 98.133 35.937 98.133 35.3474V29.8159ZM98.133 25.0228C98.133 24.6043 98.133 24.2602 99.608 24.2602C102.361 24.2602 102.803 26.375 102.803 27.1357C102.803 29.0291 101.181 29.8401 99.9762 29.8401C99.0183 29.8401 98.5757 29.5946 98.133 29.349V25.0228ZM111.186 34.6871C111.186 35.5966 111.112 35.9407 110.816 36.3536C110.522 36.4038 110.325 36.428 110.152 36.428C109.932 36.428 109.711 36.4038 109.488 36.3536V36.6493C109.685 36.6977 109.784 36.7237 110.079 36.7237C110.301 36.7237 111.432 36.6493 111.701 36.6493C112.315 36.6493 112.979 36.7237 113.52 36.7237C113.742 36.7237 113.864 36.7237 114.037 36.6493V36.3536C113.889 36.428 113.79 36.4522 113.595 36.4522C113.472 36.4522 113.2 36.428 113.029 36.4038C112.758 36.1862 112.512 35.8923 112.512 35.3511V25.1549C112.512 24.5058 112.808 24.409 113.619 24.409H115.094C115.486 24.409 116.15 24.409 116.15 25.4041V25.605C116.052 25.7352 115.881 26.0309 115.659 26.2764C115.708 26.3006 115.782 26.375 115.83 26.3992C116.543 25.6124 116.692 24.8759 116.692 24.7271C116.692 24.0891 116.323 23.892 115.855 23.892C114.971 23.892 111.333 24.0147 110.522 24.0147C109.76 24.0147 108.802 24.0147 107.794 23.8418C106.884 25.5064 106.785 25.7036 106.711 26.2764L106.834 26.3006C107.375 24.928 108.554 24.4332 108.703 24.4332H110.619C110.915 24.4332 111.186 24.6825 111.186 24.9819V34.6871ZM123.131 23.8678C122.911 23.8418 122.885 23.8418 122.615 23.8418C122.344 23.8418 121.141 23.9403 120.871 23.9403C120.33 23.9403 119.494 23.8418 118.953 23.8418L118.585 23.8678V24.1635C118.732 24.1375 118.879 24.1375 119.026 24.1375C120.108 24.1375 120.108 24.9001 120.108 25.8338V34.8563C120.108 35.7156 120.108 36.428 119.124 36.428C118.953 36.428 118.78 36.428 118.633 36.4038V36.7237H119.714C119.863 36.7237 120.649 36.6251 120.821 36.6251C121.018 36.6251 121.951 36.7237 122.173 36.7237H123.008V36.4038C122.885 36.428 122.762 36.428 122.664 36.428C121.485 36.428 121.485 35.3715 121.485 34.8805V25.8096C121.485 25.22 121.535 24.1375 122.64 24.1375C122.787 24.1375 122.96 24.1375 123.131 24.1635V23.8678ZM127.211 34.3393C127.211 36.0114 126.917 36.428 126.008 36.428C125.885 36.428 125.762 36.428 125.64 36.4038V36.6977C125.811 36.7237 125.934 36.7237 126.131 36.7237C126.499 36.7237 126.917 36.6493 127.384 36.6493C127.926 36.6493 128.27 36.7237 128.539 36.7237C128.859 36.7237 129.326 36.7237 129.449 36.6977V36.4038C129.302 36.428 129.105 36.428 128.958 36.428C128.686 36.428 128.244 36.2811 128.097 36.0597C127.851 35.79 127.728 35.4199 127.728 34.3393V25.6626L137.143 36.8223C137.24 36.8707 137.365 36.8707 137.413 36.8707C137.462 36.8707 137.56 36.8465 137.56 36.8465C137.683 36.7721 137.709 36.6493 137.709 36.5749V26.2281C137.709 24.556 138.003 24.1375 138.912 24.1375C139.035 24.1375 139.158 24.1375 139.281 24.1635V23.8678C139.109 23.8418 138.987 23.8418 138.79 23.8418C138.421 23.8418 138.003 23.9162 137.536 23.9162C136.995 23.9162 136.651 23.8418 136.381 23.8418C136.061 23.8418 135.594 23.8418 135.471 23.8678V24.1635C135.618 24.1375 135.815 24.1375 135.962 24.1375C136.234 24.1375 136.675 24.2863 136.824 24.5058C137.069 24.7773 137.192 25.1456 137.192 26.2281V34.7317L128.244 24.3588C128.121 24.2119 127.9 24.065 127.753 23.9906C127.606 23.892 127.064 23.8418 126.4 23.8418C125.885 23.8418 125.614 23.8678 125.467 23.8678V24.1375H125.762C126.278 24.1375 126.376 24.2119 126.745 24.5802L127.211 25.047V34.3393ZM142.132 26.7916C142.919 26.1035 143.337 25.3669 143.337 24.7271C143.337 24.1133 142.969 23.6948 142.452 23.6948C141.886 23.6948 141.566 24.1375 141.566 24.556C141.566 24.9484 141.886 25.3669 142.452 25.3669C142.599 25.3669 142.723 25.3186 142.87 25.2944C142.649 25.8096 142.55 25.9807 141.91 26.5963L142.132 26.7916ZM149.311 28.8729C147.05 27.0055 146.925 26.2485 146.925 25.7315C146.925 24.7736 147.762 24.1133 148.794 24.1133C150.317 24.1133 151.154 25.5845 151.154 25.6831C151.154 26.0012 151.056 26.5666 151.032 26.7396H151.277C151.448 26.1741 151.448 25.7798 151.448 25.5603C151.448 25.0916 151.424 24.8703 151.277 24.409C149.851 23.8678 149.458 23.719 148.696 23.719C146.877 23.719 145.893 25.0916 145.893 26.2485C145.893 27.5951 146.679 28.2833 148.13 29.509L149.138 30.3683C149.998 31.1067 151.352 32.258 151.352 33.8278C151.352 35.3511 150.122 36.3536 148.647 36.3536C147.492 36.3536 146.877 35.9165 146.557 35.671C145.991 35.2767 145.426 34.6127 145.402 34.5643C145.279 34.3188 145.23 33.8762 145.23 33.4874C145.23 33.2661 145.255 33.0931 145.279 32.8718H145.058C144.959 33.1173 144.959 33.4614 144.959 33.6827C144.959 34.343 145.303 35.3269 145.303 35.9909C146.386 35.9909 147.074 36.7237 148.549 36.7237C151.843 36.7237 152.481 34.5643 152.481 33.4874C152.481 32.085 151.792 30.9095 150.293 29.6801L149.311 28.8729Z" fill="#8A8A8A"/>
<path id="Vector_12" d="M156.1 23.2407C156.431 23.2407 156.753 23.3244 157.069 23.4955C157.383 23.6629 157.629 23.9066 157.803 24.2228C157.978 24.539 158.068 24.8682 158.068 25.2085C158.068 25.5489 157.98 25.8744 157.807 26.1869C157.634 26.5012 157.392 26.7449 157.08 26.916C156.767 27.0908 156.44 27.1764 156.1 27.1764C155.759 27.1764 155.432 27.0908 155.121 26.916C154.809 26.7449 154.565 26.5012 154.392 26.1869C154.217 25.8744 154.13 25.5489 154.13 25.2085C154.13 24.8682 154.219 24.539 154.394 24.2228C154.573 23.9066 154.818 23.6629 155.133 23.4955C155.447 23.3244 155.769 23.2407 156.1 23.2407ZM156.1 23.5662C155.824 23.5662 155.553 23.6369 155.292 23.7782C155.03 23.9196 154.826 24.1242 154.679 24.3864C154.53 24.6506 154.455 24.924 154.455 25.2085C154.455 25.4931 154.53 25.7647 154.675 26.0251C154.82 26.2854 155.023 26.4882 155.283 26.6333C155.544 26.7783 155.817 26.8509 156.1 26.8509C156.384 26.8509 156.656 26.7783 156.916 26.6333C157.177 26.4882 157.379 26.2854 157.524 26.0251C157.669 25.7647 157.74 25.4931 157.74 25.2085C157.74 24.924 157.668 24.6506 157.521 24.3864C157.374 24.1242 157.169 23.9196 156.907 23.7782C156.643 23.6369 156.375 23.5662 156.1 23.5662ZM155.237 26.2947V24.18H155.964C156.213 24.18 156.394 24.1986 156.505 24.2395C156.617 24.2786 156.704 24.3455 156.771 24.4441C156.838 24.5408 156.87 24.645 156.87 24.7529C156.87 24.9072 156.816 25.043 156.704 25.1565C156.594 25.2718 156.447 25.335 156.263 25.3499C156.338 25.3815 156.399 25.4187 156.444 25.4615C156.529 25.5452 156.633 25.6847 156.756 25.8818L157.015 26.2947H156.6L156.412 25.9618C156.263 25.6996 156.142 25.5359 156.053 25.4689C155.99 25.4206 155.899 25.3964 155.78 25.3983H155.579V26.2947H155.237ZM155.579 25.1044H155.994C156.191 25.1044 156.327 25.0746 156.399 25.017C156.472 24.9574 156.507 24.8793 156.507 24.7826C156.507 24.7212 156.49 24.6636 156.455 24.6152C156.42 24.565 156.371 24.5297 156.312 24.5055C156.248 24.4813 156.135 24.4683 155.968 24.4683H155.579V25.1044Z" fill="#8A8A8A"/>
<path id="Vector_13" fill-rule="evenodd" clip-rule="evenodd" d="M52.1252 41.1689H99.418V41.7437H52.1252V41.1689Z" fill="#8A8A8A"/>
<path id="Vector_14" d="M52.4435 45.582H53.3604L54.229 49.0211H54.242L55.1106 45.582H56.0276V49.9194H55.4808V46.1289H55.4696L54.508 49.9194H53.9612L53.0015 46.1289H52.9903V49.9194H52.4435V45.582ZM58.5515 48.292H59.7326L59.1728 46.1958H59.1597L58.5515 48.292ZM58.8194 45.582H59.5373L60.7016 49.9194H60.1567L59.8423 48.7291H58.4399L58.1144 49.9194H57.5676L58.8194 45.582ZM62.3105 45.582H63.4711C63.8077 45.582 64.0756 45.6397 64.2764 45.7531C64.4773 45.8666 64.6298 46.021 64.734 46.2163C64.84 46.4134 64.9088 46.6441 64.9404 46.9063C64.9739 47.1704 64.9907 47.4513 64.9907 47.7507C64.9907 48.026 64.9683 48.2938 64.9293 48.5524C64.8884 48.8128 64.814 49.0434 64.7042 49.2461C64.5945 49.447 64.4457 49.6107 64.2541 49.7353C64.0644 49.858 63.8208 49.9194 63.525 49.9194H62.3105V45.582ZM62.8573 49.4823H63.4171C63.6478 49.4823 63.83 49.4284 63.9658 49.3205C64.1016 49.2145 64.2058 49.0769 64.2764 48.9113C64.3471 48.7458 64.3918 48.5598 64.4122 48.3552C64.4327 48.1506 64.4438 47.9516 64.4438 47.7563C64.4438 47.5461 64.4345 47.3378 64.4197 47.1314C64.4029 46.9249 64.362 46.7389 64.2932 46.5752C64.2281 46.4116 64.1258 46.2776 63.9881 46.1754C63.8505 46.0712 63.6589 46.0191 63.4171 46.0191H62.8573V49.4823ZM66.8841 45.582H69.1253V46.0563H67.4309V47.4178H69.0267V47.8902H67.4309V49.4451H69.1978V49.9194H66.8841V45.582ZM73.5817 45.582H74.1267V49.9194H73.5817V45.582ZM76.0703 45.582H76.7622L78.1962 49.2033H78.2074V45.582H78.7431V49.9194H78.0065L76.6172 46.4078H76.6041V49.9194H76.0703V45.582ZM83.3315 45.582H83.8784V49.9194H83.3315V45.582ZM87.1519 49.9194H86.605V46.0563H85.517V45.582H88.2455V46.0563H87.1519V49.9194ZM90.1315 48.292H91.3107L90.7509 46.1958H90.7397L90.1315 48.292ZM90.3993 45.582H91.1154L92.2816 49.9194H91.7366L91.4223 48.7291H90.0199L89.6944 49.9194H89.1476L90.3993 45.582ZM93.8365 45.582H94.3833V49.4451H96.1317V49.9194H93.8365V45.582ZM96.8589 45.582H97.4485L98.2818 47.6112L99.1559 45.582H99.7028L98.5533 48.2194V49.9194H98.0065V48.2194L96.8589 45.582Z" fill="#8A8A8A"/>
</g>
</svg>
