<svg width="157" height="18" viewBox="0 0 157 18" fill="none" xmlns="http://www.w3.org/2000/svg">
<g id="zoskin 1" clip-path="url(#clip0_292_1500)">
<path id="Vector" d="M20.208 15.5C16.0333 15.5 12.9874 12.3551 12.9874 8.02117C12.9874 3.7142 16.0333 0.569336 20.208 0.569336C24.3827 0.569336 27.4077 3.7142 27.4077 8.02117C27.4077 12.3551 24.3812 15.5 20.208 15.5ZM20.208 2.14027C17.3177 2.14027 14.9432 4.79844 14.9432 8.02267C14.9432 11.2799 17.3177 13.9305 20.208 13.9305C23.0789 13.9305 25.4503 11.2799 25.4503 8.02267C25.4503 4.79694 23.0774 2.14027 20.208 2.14027Z" fill="#8A8A8A"/>
<path id="Vector_2" d="M9.3573 13.6125H2.43726L10.7449 1.68444V0.729004H0V2.23704V3.43509L1.78533 2.23704H8.31213L0 14.2804V15.1101H11.1381V13.6125V12.41L9.3573 13.6125Z" fill="#8A8A8A"/>
<path id="Vector_3" d="M43.5431 3.31614C42.806 2.88784 42.5055 2.73958 42.0554 2.59132C41.5156 2.41311 40.6603 2.28582 40.0966 2.28582C38.4862 2.28582 37.3887 3.08102 37.3887 4.28656C37.3887 5.34533 38.0137 5.88744 40.8981 7.41794C41.8685 7.93609 42.6161 8.40934 43.1379 8.87059C43.8228 9.44114 44.228 10.416 44.228 11.4494C44.228 13.8904 42.4277 15.4194 39.5643 15.4194C38.5909 15.4194 37.6877 15.2472 36.9371 14.9387C36.3959 14.7245 36.0295 14.5179 35.1055 13.8889L36.0086 12.4827C36.807 13.0263 37.148 13.2105 37.6429 13.4186C38.2739 13.6523 38.9587 13.784 39.6914 13.784C41.3691 13.784 42.3813 12.9829 42.3813 11.6231C42.3813 11.2083 42.3141 10.8638 42.1675 10.6077C41.9358 10.1839 41.5156 9.76614 40.9564 9.43814C40.7201 9.31084 39.9217 8.90204 38.5894 8.16824C36.4557 7.02709 35.557 5.90244 35.557 4.4408C35.557 2.175 37.4231 0.668457 40.2506 0.668457C41.067 0.668457 41.9103 0.774784 42.6445 1.0084C43.2217 1.20309 43.5731 1.38579 44.367 1.84853L43.5431 3.31614Z" fill="#8A8A8A"/>
<path id="Vector_4" d="M51.305 7.83532L56.8584 0.912109H54.8368L49.2835 7.96562L54.9624 15.1344H57.135L51.305 7.83532ZM47.383 2.67174V15.1344H49.1519V0.912109H46.2092L47.383 2.67174Z" fill="#8A8A8A"/>
<path id="Vector_5" d="M58.0895 0.912109L59.2707 2.67174V15.1344H61.0366V0.912109H58.0895Z" fill="#8A8A8A"/>
<path id="Vector_6" d="M74.9448 0.912109V12.9689C74.9059 12.8806 74.8715 12.7907 74.8611 12.7518C74.6951 12.343 74.6951 12.3175 74.6114 12.1034C74.5396 11.9761 74.4678 11.8428 74.408 11.7514L67.3684 0.912109H63.8845L65.0643 2.67174V15.1344H66.8286V2.80202C66.9199 3.08506 66.9617 3.20187 67.0425 3.35313C67.0619 3.428 67.1322 3.51786 67.2159 3.6751C67.3236 3.88476 67.4312 4.05997 67.4955 4.1648L74.6637 15.2692H76.7092V0.912109H74.9448Z" fill="#8A8A8A"/>
<path id="Vector_7" d="M138.218 2.3872V15.1344H136.45V2.3872H131.706V0.912109H142.958V2.3872H138.218Z" fill="#8A8A8A"/>
<path id="Vector_8" d="M102.471 13.6563V8.62602H107.616V7.13597H102.471V2.3872H108.692V0.912109H99.5265L100.708 2.67174V15.1344H108.891V13.6563H102.471Z" fill="#8A8A8A"/>
<path id="Vector_9" d="M126.759 13.6563V0.912109H123.808L124.989 2.67174V15.1344H133.104V13.6563H126.759Z" fill="#8A8A8A"/>
<path id="Vector_10" d="M86.5334 0.912109H83.5923L84.7705 2.67174V15.1344H86.5349V8.62602H93.736V7.01167H86.5349V0.912109H86.5334ZM94.9053 0.912109V15.1344H96.6711V0.912109H94.9053Z" fill="#8A8A8A"/>
<path id="Vector_11" d="M117.595 0.5H114.527L115.286 1.64413L110.398 15.1327H112.303L113.766 10.9395H118.247L117.695 9.3146H114.322L116.649 2.80025L118.953 9.3146L119.512 10.9395L120.979 15.1327H122.869L117.595 0.5Z" fill="#8A8A8A"/>
<path id="Vector_12" d="M146.844 0.912109H143.906L145.077 2.67174V15.1344H146.844V8.62602H154.037V7.01167H146.844V0.912109ZM155.216 0.912109V15.1344H156.991V0.912109H155.216Z" fill="#8A8A8A"/>
<path id="Vector_13" d="M29.8178 4.73093C28.7128 4.73093 27.8171 3.83389 27.8171 2.7287C27.8171 1.62799 28.7128 0.730957 29.8178 0.730957C30.9168 0.730957 31.8125 1.62799 31.8125 2.7287C31.8125 3.83389 30.9168 4.73093 29.8178 4.73093ZM29.8178 1.04095C28.8832 1.04095 28.1296 1.79572 28.1296 2.7272C28.1296 3.66317 28.8832 4.41794 29.8178 4.41794C30.7464 4.41794 31.5015 3.66317 31.5015 2.7272C31.5015 1.79722 30.7464 1.04095 29.8178 1.04095ZM30.3277 3.88331L29.6219 2.93236H29.3782V3.88331H28.9789V1.58307H29.8059C30.404 1.58307 30.6671 1.77775 30.6671 2.23151C30.6671 2.61189 30.4383 2.86497 30.0496 2.90391L30.8181 3.88331H30.3277ZM30.1288 1.94248C30.0556 1.90804 29.9389 1.88857 29.749 1.88857H29.3797V2.65382H29.749C30.1049 2.65382 30.2739 2.52203 30.2739 2.239C30.2739 2.10871 30.217 1.98741 30.1288 1.94248Z" fill="#8A8A8A"/>
</g>
<defs>
<clipPath id="clip0_292_1500">
<rect width="157" height="17" fill="white" transform="translate(0 0.5)"/>
</clipPath>
</defs>
</svg>
