<svg width="24" height="24" viewBox="0 0 24 24" fill="none" xmlns="http://www.w3.org/2000/svg">
<g id="add_shopping_cart">
<mask id="mask0_342_1340" style="mask-type:alpha" maskUnits="userSpaceOnUse" x="0" y="0" width="24" height="24">
<rect id="Bounding box" width="24" height="24" fill="#D9D9D9"/>
</mask>
<g mask="url(#mask0_342_1340)">
<path id="add_shopping_cart_2" d="M11.6498 8.35015V5.35015H8.6498V4.65015H11.6498V1.65015H12.3498V4.65015H15.3498V5.35015H12.3498V8.35015H11.6498ZM7.3998 20.8501C7.01647 20.8501 6.69564 20.721 6.4373 20.4626C6.17897 20.2043 6.0498 19.8835 6.0498 19.5001C6.0498 19.1168 6.17897 18.796 6.4373 18.5376C6.69564 18.2793 7.01647 18.1501 7.3998 18.1501C7.78314 18.1501 8.10397 18.2793 8.3623 18.5376C8.62064 18.796 8.7498 19.1168 8.7498 19.5001C8.7498 19.8835 8.62064 20.2043 8.3623 20.4626C8.10397 20.721 7.78314 20.8501 7.3998 20.8501ZM16.5998 20.8501C16.2165 20.8501 15.8956 20.721 15.6373 20.4626C15.379 20.2043 15.2498 19.8835 15.2498 19.5001C15.2498 19.1168 15.379 18.796 15.6373 18.5376C15.8956 18.2793 16.2165 18.1501 16.5998 18.1501C16.9831 18.1501 17.304 18.2793 17.5623 18.5376C17.8206 18.796 17.9498 19.1168 17.9498 19.5001C17.9498 19.8835 17.8206 20.2043 17.5623 20.4626C17.304 20.721 16.9831 20.8501 16.5998 20.8501ZM2.2998 3.35015V2.65015H4.4998L8.5498 11.1501H15.0748C15.2248 11.1501 15.3581 11.1126 15.4748 11.0376C15.5915 10.9626 15.6915 10.8585 15.7748 10.7251L19.1498 4.65015H19.9498L16.3498 11.1501C16.2165 11.3668 16.0453 11.5376 15.8363 11.6626C15.6272 11.7876 15.3984 11.8501 15.1498 11.8501H8.0998L6.8498 14.1501C6.71647 14.3501 6.7123 14.5668 6.8373 14.8001C6.9623 15.0335 7.1498 15.1501 7.3998 15.1501H17.9498V15.8501H7.3998C6.86647 15.8501 6.47064 15.6293 6.2123 15.1876C5.95397 14.746 5.9498 14.3001 6.1998 13.8501L7.7498 11.1001L4.0498 3.35015H2.2998Z" fill="white"/>
</g>
</g>
</svg>
