<svg width="32" height="32" viewBox="0 0 32 32" fill="none" xmlns="http://www.w3.org/2000/svg">
<path d="M5.847 11.1314C5.47196 11.5752 4.87189 11.9253 4.27182 11.8753C4.19682 11.2752 4.4906 10.6376 4.83439 10.2438C5.20943 9.78754 5.86576 9.4625 6.39707 9.4375C6.45957 10.0626 6.2158 10.6751 5.847 11.1314ZM6.39082 11.994C5.52197 11.944 4.77813 12.4878 4.36558 12.4878C3.94679 12.4878 3.31546 12.019 2.62789 12.0315C1.73403 12.044 0.902688 12.5504 0.446385 13.3567C-0.491222 14.9694 0.202607 17.3572 1.10896 18.6698C1.55276 19.3199 2.08407 20.0325 2.78415 20.0075C3.44673 19.9825 3.70926 19.5762 4.50935 19.5762C5.31569 19.5762 5.54697 20.0075 6.24705 19.995C6.97213 19.9825 7.42843 19.3449 7.87224 18.6948C8.37854 17.9572 8.58482 17.2384 8.59732 17.2009C8.58482 17.1884 7.19716 16.6571 7.18466 15.0569C7.17216 13.7192 8.27853 13.0817 8.32854 13.0442C7.70347 12.1191 6.72835 12.019 6.39082 11.994ZM11.4101 10.1813V19.9262H12.9228V16.5946H15.0168C16.9295 16.5946 18.2734 15.2819 18.2734 13.3817C18.2734 11.4815 16.9545 10.1813 15.0668 10.1813H11.4101ZM12.9228 11.4565H14.6668C15.9794 11.4565 16.7295 12.1566 16.7295 13.388C16.7295 14.6193 15.9794 15.3257 14.6605 15.3257H12.9228V11.4565ZM21.0362 20.0012C21.9864 20.0012 22.8677 19.5199 23.2677 18.7573H23.299V19.9262H24.6992V15.0756C24.6992 13.6692 23.574 12.7629 21.8426 12.7629C20.2362 12.7629 19.0485 13.6817 19.0048 14.9444H20.3674C20.4799 14.3443 21.0362 13.9505 21.7988 13.9505C22.7239 13.9505 23.2427 14.3818 23.2427 15.1757V15.7132L21.355 15.8257C19.5986 15.932 18.6485 16.6508 18.6485 17.901C18.6485 19.1636 19.6298 20.0012 21.0362 20.0012ZM21.4425 18.8448C20.6362 18.8448 20.1236 18.4573 20.1236 17.8635C20.1236 17.2509 20.6174 16.8946 21.5613 16.8383L23.2427 16.7321V17.2821C23.2427 18.1948 22.4677 18.8448 21.4425 18.8448ZM26.5681 22.5765C28.0433 22.5765 28.7371 22.0139 29.3434 20.3075L32 12.8566H30.4623L28.6809 18.6136H28.6496L26.8682 12.8566H25.2867L27.8495 19.9512L27.712 20.3825C27.4807 21.1138 27.1057 21.3951 26.4369 21.3951C26.3181 21.3951 26.0868 21.3826 25.9931 21.3701V22.539C26.0806 22.564 26.4556 22.5765 26.5681 22.5765Z" fill="black"/>
</svg>
