<svg width="33" height="32" viewBox="0 0 33 32" fill="none" xmlns="http://www.w3.org/2000/svg">
<path d="M16.3328 32C15.4734 32 14.6105 31.9314 13.7698 31.7952C10.0589 31.1976 6.65792 29.2901 4.19467 26.4243C1.7047 23.5273 0.333252 19.8253 0.333252 15.9996C0.333252 7.17691 7.51107 0 16.3328 0C25.1546 0 32.3333 7.1778 32.3333 15.9996C32.3333 19.8841 30.9244 23.6298 28.365 26.5463C25.8305 29.4361 22.3485 31.3178 18.5601 31.8459C17.8272 31.9483 17.0773 32 16.3328 32ZM16.3328 1.06866C8.09972 1.06866 1.40191 7.76645 1.40191 15.9996C1.40191 23.3706 6.67483 29.5706 13.9399 30.7399C15.4049 30.9759 16.9384 30.9928 18.4122 30.7871C25.7388 29.7665 31.2637 23.4089 31.2637 15.9996C31.2637 7.76645 24.5659 1.06866 16.3319 1.06866H16.3328Z" fill="black"/>
<path d="M21.1765 6.71649H11.49C8.81395 6.71649 6.63745 8.89299 6.63745 11.5691V20.4309C6.63745 23.107 8.81395 25.2835 11.49 25.2835H21.1765C23.8526 25.2835 26.0291 23.107 26.0291 20.4309V11.5691C26.0291 8.89299 23.8526 6.71649 21.1765 6.71649ZM8.34908 11.5691C8.34908 9.83697 9.75792 8.42812 11.49 8.42812H21.1765C22.9086 8.42812 24.3175 9.83697 24.3175 11.5691V20.4309C24.3175 22.163 22.9086 23.5719 21.1765 23.5719H11.49C9.75792 23.5719 8.34908 22.163 8.34908 20.4309V11.5691Z" fill="black"/>
<path d="M16.3328 20.5137C18.8219 20.5137 20.847 18.4886 20.847 15.9995C20.847 13.5104 18.8219 11.4853 16.3328 11.4853C13.8437 11.4853 11.8186 13.5104 11.8186 15.9995C11.8186 18.4886 13.8437 20.5137 16.3328 20.5137ZM16.3328 13.1978C17.8779 13.1978 19.1345 14.4544 19.1345 15.9995C19.1345 17.5446 17.8779 18.8012 16.3328 18.8012C14.7877 18.8012 13.5311 17.5446 13.5311 15.9995C13.5311 14.4544 14.7877 13.1978 16.3328 13.1978Z" fill="black"/>
<path d="M21.2656 12.2138C21.9361 12.2138 22.482 11.6679 22.482 10.9973C22.482 10.3267 21.9361 9.78079 21.2656 9.78079C20.595 9.78079 20.0491 10.3267 20.0491 10.9973C20.0491 11.6679 20.595 12.2138 21.2656 12.2138Z" fill="black"/>
</svg>
