<svg width="32" height="32" viewBox="0 0 32 32" fill="none" xmlns="http://www.w3.org/2000/svg">
<g clip-path="url(#clip0_63_4952)">
<path d="M24.5961 13.81H22.8251C22.7041 13.81 22.6011 13.898 22.5822 14.0177L21.866 18.5585C21.8518 18.6481 21.9211 18.7289 22.0115 18.7289H22.9204C23.0048 18.7289 23.077 18.6673 23.0902 18.5834L23.2935 17.2962C23.3121 17.1763 23.4154 17.0883 23.5363 17.0883H24.0967C25.2634 17.0883 25.9364 16.5238 26.1124 15.4053C26.1919 14.9159 26.1155 14.5314 25.8864 14.2621C25.635 13.9664 25.1888 13.81 24.5961 13.81ZM24.8004 15.4685C24.7039 16.1039 24.2184 16.1039 23.7487 16.1039H23.4817L23.6694 14.9172C23.6806 14.8455 23.7422 14.7926 23.815 14.7926H23.9374C24.2569 14.7926 24.5589 14.7926 24.7147 14.9749C24.8077 15.0837 24.8359 15.2453 24.8004 15.4685Z" fill="#179BD7"/>
<path d="M29.8891 15.448H29.0416C28.9689 15.448 28.907 15.5008 28.8961 15.5726L28.8585 15.8097L28.799 15.7238C28.6154 15.4573 28.2063 15.3683 27.7977 15.3683C26.8607 15.3683 26.0606 16.078 25.9047 17.0736C25.8239 17.5702 25.9386 18.0451 26.2203 18.3762C26.4793 18.6807 26.8485 18.8076 27.2884 18.8076C28.0434 18.8076 28.4621 18.3221 28.4621 18.3221L28.4243 18.5578C28.4101 18.6479 28.4795 18.7286 28.5704 18.7286H29.3339C29.4549 18.7286 29.5579 18.6406 29.5768 18.5207L30.0354 15.6184C30.0494 15.5291 29.98 15.448 29.8891 15.448ZM28.7071 17.0984C28.6258 17.5829 28.2407 17.9081 27.7503 17.9081C27.5046 17.9081 27.3073 17.8291 27.1809 17.6795C27.0556 17.5308 27.0085 17.3193 27.0479 17.0837C27.1248 16.6034 27.5152 16.2675 27.9981 16.2675C28.2389 16.2675 28.4347 16.3475 28.5636 16.4985C28.6934 16.651 28.7446 16.8638 28.7071 17.0984Z" fill="#179BD7"/>
<path d="M30.8888 13.9346L30.162 18.5585C30.1478 18.6481 30.2172 18.7289 30.3075 18.7289H31.0382C31.1597 18.7289 31.2627 18.6409 31.2814 18.521L31.9981 13.9804C32.0123 13.8908 31.9429 13.8098 31.8526 13.8098H31.0343C30.9621 13.81 30.9 13.8628 30.8888 13.9346Z" fill="#179BD7"/>
<path d="M11.9653 13.81H10.1945C10.0733 13.81 9.97023 13.898 9.95133 14.0177L9.23514 18.5585C9.22089 18.6481 9.29029 18.7289 9.38117 18.7289H10.2266C10.3478 18.7289 10.4508 18.6408 10.4697 18.521L10.6629 17.2962C10.6815 17.1763 10.7848 17.0883 10.9057 17.0883H11.4663C12.6328 17.0883 13.306 16.5238 13.4818 15.4053C13.5611 14.9159 13.4852 14.5314 13.256 14.2621C13.0044 13.9664 12.558 13.81 11.9653 13.81ZM12.1696 15.4685C12.0727 16.1039 11.5872 16.1039 11.1178 16.1039H10.8506L11.0381 14.9172C11.0492 14.8455 11.1113 14.7926 11.1838 14.7926H11.3063C11.6261 14.7926 11.9277 14.7926 12.0836 14.9749C12.1766 15.0837 12.205 15.2453 12.1696 15.4685Z" fill="#253B80"/>
<path d="M17.2586 15.448H16.4106C16.3384 15.448 16.276 15.5008 16.2648 15.5726L16.2273 15.8097L16.168 15.7238C15.9844 15.4573 15.575 15.3683 15.1665 15.3683C14.2294 15.3683 13.429 16.078 13.2732 17.0736C13.1921 17.5702 13.3073 18.0451 13.5891 18.3762C13.8475 18.6807 14.2172 18.8076 14.6571 18.8076C15.4122 18.8076 15.8309 18.3221 15.8309 18.3221L15.7931 18.5578C15.7788 18.6479 15.8482 18.7286 15.9386 18.7286H16.7024C16.8239 18.7286 16.9264 18.6406 16.9456 18.5207L17.4039 15.6184C17.4184 15.5291 17.3492 15.448 17.2586 15.448ZM16.0766 17.0984C15.9948 17.5829 15.6103 17.9081 15.1198 17.9081C14.8736 17.9081 14.6768 17.8291 14.5505 17.6795C14.4251 17.5308 14.3775 17.3193 14.4174 17.0837C14.4938 16.6034 14.8847 16.2675 15.3676 16.2675C15.6084 16.2675 15.8042 16.3475 15.9331 16.4985C16.0623 16.651 16.1136 16.8638 16.0766 17.0984Z" fill="#253B80"/>
<path d="M21.7749 15.448H20.9227C20.8414 15.448 20.765 15.4884 20.719 15.556L19.5437 17.2872L19.0455 15.6235C19.0142 15.5194 18.9181 15.448 18.8094 15.448H17.972C17.8702 15.448 17.7995 15.5474 17.8319 15.6432L18.7705 18.3977L17.8881 19.6434C17.8187 19.7415 17.8886 19.8764 18.0085 19.8764H18.8596C18.9404 19.8764 19.016 19.8371 19.0618 19.7708L21.896 15.6797C21.9639 15.5818 21.8942 15.448 21.7749 15.448Z" fill="#253B80"/>
<path d="M1.88143 19.6113L2.01685 18.7512L1.7152 18.7442H0.27478L1.2758 12.397C1.27891 12.3779 1.289 12.36 1.30376 12.3473C1.31852 12.3346 1.33742 12.3277 1.3571 12.3277H3.78585C4.59216 12.3277 5.14859 12.4954 5.43911 12.8266C5.57531 12.982 5.66205 13.1443 5.70399 13.323C5.74801 13.5104 5.74879 13.7344 5.70581 14.0076L5.7027 14.0275V14.2026L5.8389 14.2797C5.9536 14.3406 6.04474 14.4102 6.11466 14.49C6.23117 14.6228 6.30652 14.7916 6.33837 14.9918C6.37125 15.1976 6.36038 15.4426 6.30652 15.7199C6.24438 16.0389 6.14391 16.3167 6.00824 16.544C5.88343 16.7535 5.72445 16.9273 5.53569 17.0619C5.35548 17.1898 5.14134 17.2869 4.89924 17.3491C4.66466 17.4102 4.39718 17.441 4.10382 17.441H3.9148C3.77964 17.441 3.64836 17.4897 3.54531 17.5769C3.44199 17.666 3.37364 17.7877 3.35266 17.9208L3.33842 17.9982L3.09917 19.5142L3.0883 19.5699C3.08545 19.5875 3.08053 19.5963 3.07328 19.6023C3.06681 19.6077 3.05749 19.6113 3.04842 19.6113H1.88143Z" fill="#253B80"/>
<path d="M5.96787 14.0477C5.96062 14.094 5.95233 14.1414 5.94301 14.1901C5.62271 15.8346 4.52693 16.4027 3.12742 16.4027H2.41485C2.2437 16.4027 2.09947 16.5269 2.0728 16.6958L1.70797 19.0095L1.60466 19.6654C1.58731 19.7762 1.67276 19.8762 1.78462 19.8762H3.04845C3.19811 19.8762 3.32524 19.7674 3.3488 19.6198L3.36123 19.5556L3.59919 18.0456L3.61446 17.9627C3.63777 17.8146 3.76516 17.7058 3.91482 17.7058H4.10384C5.32831 17.7058 6.28687 17.2087 6.56703 15.7701C6.68406 15.1691 6.62347 14.6673 6.3138 14.3144C6.22006 14.208 6.1038 14.1197 5.96787 14.0477Z" fill="#179BD7"/>
<path d="M5.63276 13.9141C5.58383 13.8999 5.53333 13.8869 5.48155 13.8753C5.4295 13.8639 5.37617 13.8538 5.32127 13.845C5.12915 13.8139 4.91864 13.7991 4.69311 13.7991H2.78947C2.7426 13.7991 2.69807 13.8098 2.65819 13.8289C2.57041 13.8711 2.50516 13.9542 2.48937 14.056L2.08441 16.621L2.07275 16.6958C2.09942 16.527 2.24365 16.4027 2.4148 16.4027H3.12737C4.52688 16.4027 5.62266 15.8343 5.94296 14.1901C5.95254 14.1415 5.96057 14.0941 5.96782 14.0477C5.88677 14.0047 5.799 13.968 5.70449 13.9366C5.68118 13.9289 5.6571 13.9214 5.63276 13.9141Z" fill="#222D65"/>
<path d="M2.48934 14.056C2.50513 13.9542 2.57038 13.8711 2.65816 13.8292C2.69829 13.81 2.74257 13.7994 2.78943 13.7994H4.69308C4.9186 13.7994 5.12911 13.8142 5.32124 13.8452C5.37613 13.854 5.42947 13.8641 5.48152 13.8755C5.5333 13.8872 5.58379 13.9001 5.63273 13.9144C5.65707 13.9216 5.68115 13.9291 5.70471 13.9366C5.79922 13.968 5.887 14.005 5.96804 14.0477C6.06333 13.44 5.96727 13.0262 5.63869 12.6516C5.27644 12.2391 4.62265 12.0625 3.78605 12.0625H1.3573C1.18641 12.0625 1.04063 12.1868 1.01422 12.3559L0.00258639 18.7682C-0.0173511 18.8951 0.0805239 19.0096 0.208435 19.0096H1.70789L2.08437 16.6209L2.48934 14.056Z" fill="#253B80"/>
</g>
<defs>
<clipPath id="clip0_63_4952">
<rect width="32" height="32" fill="white"/>
</clipPath>
</defs>
</svg>
