<svg width="33" height="32" viewBox="0 0 33 32" fill="none" xmlns="http://www.w3.org/2000/svg">
<g id="Group">
<path id="Vector" d="M16.3332 32C15.4729 32 14.6109 31.9314 13.7702 31.7952C10.0592 31.1976 6.6581 29.2901 4.19478 26.4243C1.70474 23.5273 0.333252 19.8253 0.333252 15.9995C0.333252 7.17691 7.51125 0 16.3332 0C25.1552 0 32.3333 7.1778 32.3333 15.9995C32.3333 19.8841 30.9244 23.6298 28.3649 26.5463C25.8303 29.4361 22.3482 31.3178 18.5597 31.8459C17.8267 31.9483 17.0769 32 16.3323 32H16.3332ZM16.3332 1.06866C8.09991 1.06866 1.40194 7.76645 1.40194 15.9995C1.40194 23.3715 6.67501 29.5706 13.9403 30.7399C15.4044 30.9759 16.9388 30.9928 18.4127 30.7871C25.7395 29.7665 31.2646 23.4089 31.2646 15.9995C31.2646 7.76645 24.5666 1.06866 16.3332 1.06866Z" fill="black"/>
<path id="Vector_2" d="M6.35272 15.3032C6.39636 15.2809 6.43999 15.2604 6.48363 15.2408C7.22726 14.8962 7.98068 14.5738 8.73321 14.2514C8.77418 14.2514 8.84274 14.2051 8.88015 14.1882C8.93803 14.1633 8.99592 14.1383 9.0547 14.1134C9.16602 14.0653 9.27823 14.0181 9.38955 13.97C9.61308 13.8747 9.83573 13.7794 10.0593 13.6833C10.5054 13.4927 10.9525 13.3012 11.3987 13.1106C12.2919 12.7286 13.1852 12.3466 14.0784 11.9645C14.9717 11.5825 15.8649 11.2004 16.7581 10.8184C17.6514 10.4363 18.5446 10.0543 19.4379 9.67225C20.3311 9.2902 21.2244 8.90816 22.1176 8.52612C22.3162 8.44151 22.5317 8.31327 22.7437 8.27587C22.9227 8.2447 23.0972 8.18237 23.2762 8.14852C23.6173 8.08351 23.994 8.05679 24.32 8.19839C24.4331 8.24737 24.5364 8.31684 24.6246 8.40322C25.0387 8.81376 24.9808 9.48701 24.8935 10.0641C24.2826 14.0858 23.6716 18.1066 23.0598 22.1283C22.9761 22.6796 22.863 23.2851 22.4266 23.6333C22.0579 23.9281 21.5334 23.9619 21.0792 23.8364C20.6241 23.7108 20.2225 23.4463 19.8288 23.1854C18.1955 22.1043 16.5622 21.0223 14.9289 19.9411C14.5406 19.6838 14.1087 19.3489 14.1131 18.8832C14.1158 18.6026 14.2832 18.3524 14.4542 18.1298C15.8729 16.2792 17.9221 15.0066 19.445 13.2407C19.6596 12.9922 19.8288 12.5416 19.5341 12.3982C19.3586 12.3127 19.1565 12.4285 18.997 12.5398C16.9835 13.9389 14.9699 15.3379 12.9563 16.7361C12.2991 17.192 11.6106 17.6622 10.8189 17.7744C10.1109 17.8751 9.39758 17.6783 8.71184 17.4761C8.13742 17.3069 7.56389 17.1341 6.99214 16.9551C6.68846 16.8607 6.37497 16.7592 6.13986 16.5446C5.90475 16.3309 5.77027 15.9711 5.91187 15.6861C6.00003 15.5071 6.17282 15.394 6.35361 15.3023L6.35272 15.3032Z" fill="black"/>
</g>
</svg>
